<svg xmlns="http://www.w3.org/2000/svg" xmlns:xlink="http://www.w3.org/1999/xlink" width="468.103" height="345.283" viewBox="0 0 468.103 345.283"><defs><linearGradient id="a" x1="0.5" y1="1" x2="0.5" gradientUnits="objectBoundingBox"><stop offset="0" stop-color="gray" stop-opacity="0.251"/><stop offset="0.54" stop-color="gray" stop-opacity="0.122"/><stop offset="1" stop-color="gray" stop-opacity="0.102"/></linearGradient></defs><path d="M61.83,433.31c7.209,33.973,22.456,63.341,46.551,77.577,50.091,29.585,163.059,14.327,247.371-3.188,43.613-9.059,81.946-34.059,109.793-69.242Z" transform="translate(-55.834 -277.108)" fill="#f39719" opacity="0.1"/><path d="M527.875,81.251H480.809a4.425,4.425,0,0,1,0-8.821h8.141a4.425,4.425,0,0,1,0-8.821h-5.81a4.425,4.425,0,0,1,0-8.821h24.565a61.155,61.155,0,0,0-19.165-5.729c-66.987-9.327-90.9-3.158-99.338,3.183a90.285,90.285,0,0,1-34.429,16.367c-41.328,9.246-118.617,20.37-188.669-3.543-34.817-11.908-60.7,8.188-76.2,41.782H536.049a84.459,84.459,0,0,0-5.527-26.67A3.857,3.857,0,0,1,527.875,81.251Z" transform="translate(-69.698 -44.294)" fill="#f39719" opacity="0.1"/><path d="M50.993,293.19a243.77,243.77,0,0,0,1.823,59.272l412.975,16.392a213.227,213.227,0,0,0,28.694-47.48ZM214.33,335.473H206.2a4.425,4.425,0,0,1,0,8.821H159.162a4.425,4.425,0,0,1,0-8.821H167.3a4.425,4.425,0,0,1,0-8.821h-5.811a4.425,4.425,0,0,1,0-8.821h47.037a4.425,4.425,0,0,1,0,8.821h5.806a4.425,4.425,0,0,1,0,8.821Z" transform="translate(-49.981 -191.804)" fill="#f39719" opacity="0.1"/><path d="M517.647,168.5,63.4,180.393A207.431,207.431,0,0,0,52.52,230.915H509.689a222.741,222.741,0,0,0,6.6-32.2A163.748,163.748,0,0,0,517.647,168.5Zm-372.9,38.993h-8.192a4.425,4.425,0,0,1,0,8.826H89.167a4.425,4.425,0,0,1,0-8.826h8.2a4.423,4.423,0,0,1,0-8.821H91.509a4.422,4.422,0,0,1,0-8.821H138.9a4.423,4.423,0,0,1,0,8.821h5.85a4.423,4.423,0,0,1,0,8.821Z" transform="translate(-51.235 -117.439)" fill="#f39719" opacity="0.1"/><ellipse cx="181.908" cy="20.81" rx="181.908" ry="20.81" transform="translate(49.651 288.314)" fill="#f39719" opacity="0.1"/><path d="M943.469,377.248a.671.671,0,0,1,0-.106v-.157h0a4.326,4.326,0,0,0-.643-1.625,12.8,12.8,0,0,0-4.686-4.433c-3.34-1.832-7.93-2.616-9.266-6.113a18.672,18.672,0,0,1-.622-3.4,10.268,10.268,0,0,0-6.776-7.708c-1.589-.531-3.3-.678-4.848-1.336-3.452-1.468-5.273-5.086-6.817-8.431q-3-6.478-5.992-12.961a5.039,5.039,0,0,1-4.9-.552,10.171,10.171,0,0,1-3.173-3.922c-2.06-4-2.945-8.527-5.365-12.333s-7.252-6.812-11.523-5.157a19.678,19.678,0,0,1-2.581,1.068c-3.659.855-7.708-3.325-10.84-1.3a3.544,3.544,0,0,0-1.23,1.346.6.6,0,0,1,0-.1,6.47,6.47,0,0,0-.668,2.642h0v.638c0,.729.045,1.468.056,2.206a9.829,9.829,0,0,1-.142,1.852v-.051a6.227,6.227,0,0,1-.263,1.012c-.815,2.186-3.072,3.618-4.13,5.673v-.1a5.347,5.347,0,0,0-.309.693,5.164,5.164,0,0,0-.289,1.675c-.091,3.861,4,7.495,4.479,11.64.339,2.935,1.012,3.877,3.507,5.536l.547.364c-.218,0-.44.03-.688.035a1.683,1.683,0,0,0-.289.03,3.087,3.087,0,0,0-2.6.455c-1.913,1.518-6.437.349-8.446,0s-8.892.592-9.853,4.408-2.611,11.69-2.611,11.69,0,5-.612,5.926a.3.3,0,0,0,0,.2c0,1.4.051,9.828-1.306,12a4.9,4.9,0,0,0-.061,3c-1.427,1.837-2.768,3.983-2.53,5.39.435,2.88,6.275,11.933,14.646,7.085,0,0,4.762-8.71-1.23-13.34l.258-1.012c1.812,2.227,3.153,3.826,3.153,3.826s.071.187.182.506h-.182a23.79,23.79,0,0,1,1.407,6.619,8.1,8.1,0,0,1-.445,2.434h.157c-.046.172-.1.344-.157.506a4.414,4.414,0,0,1-1.574,2.131c-4.185,2.966-8.978,24.145-8.978,24.145s-9.494,34.236-11.392,36.185c-1.569,1.6,8.29,6.1,15.688,5.567a12.075,12.075,0,0,0,3.036-.577c.046.506.1,1.012.147,1.473.157,1.518.319,2.925.42,3.365.263,1.1.784,12.369.784,12.369a79.469,79.469,0,0,0-.81,12.409c0,.349.046.683.076,1.012l-.921.142c-1.4,3.138,4.358,29.317,5.142,31.518a20.959,20.959,0,0,1,.87,5.339,5.82,5.82,0,0,0-.086,2.88,7.009,7.009,0,0,1,.506,1.948,5.366,5.366,0,0,0,.177,2.794,5.286,5.286,0,0,1-.086,3.036s-.172,7.627-1.741,11.776a6.781,6.781,0,0,0,1.088,6.721,4.163,4.163,0,0,0,.354.41s8.654.071,10.177,0h.2c.612-.086,2.181-6.948.784-10.253s-.172-7.374-.172-7.374v-6.012s1.569-1.447,0-4.555-1.311-4.049-1.311-4.049,1.746-5-.086-6.609.349-7.713.349-7.713l.617-20.344a7.989,7.989,0,0,0-.987-.253c-.035-.334-.071-.678-.106-1.042-.359-3.684-.668-8.694.132-10.122s1.184-13.887,1.311-22.546l7.976.3c.167,4.049.344,7.743.456,8.214.263,1.1.789,12.369.789,12.369a79.211,79.211,0,0,0-.815,12.409c0,.349.046.683.076,1.012l-.921.142c-1.4,3.138,4.357,29.317,5.142,31.518a21.078,21.078,0,0,1,.876,5.339,5.862,5.862,0,0,0-.091,2.88,7,7,0,0,1,.506,1.948,5.364,5.364,0,0,0,.177,2.794,5.287,5.287,0,0,1-.086,3.036s-.172,7.627-1.741,11.776a6.782,6.782,0,0,0,1.124,6.711,4.145,4.145,0,0,0,.354.41s8.654.071,10.177,0h.2c.612-.086,2.181-6.948.784-10.253s-.172-7.374-.172-7.374v-6s1.569-1.447,0-4.555-1.311-4.049-1.311-4.049,1.746-5-.086-6.609.349-7.713.349-7.713l.628-20.344a7.761,7.761,0,0,0-1.012-.253c-.035-.334-.071-.678-.106-1.042-.359-3.684-.668-8.694.132-10.122.643-1.169,1.012-8.7,1.179-16.053,0-.506,0-1.012.041-1.518a78.5,78.5,0,0,0,10.921-1.225s-4.266-15.086-2.961-17.541c.562-1.058-.248-6.69-1.356-12.758a8.867,8.867,0,0,0,5.456,1.974c1.908,3.669,7.713,12.11,10.982,13.411,3.836,1.518.957-11.943-.87-13.892a16.4,16.4,0,0,1-2.166-3.477c.051-.061.106-.111.157-.167s.091-14.322-.785-14.064-1.918-2.121-1.918-2.121l-2.7-23.72-1.134-9.929h0c.946.7,2.07,1.144,3.037,1.837,2.632,1.928,3.492,5.314,4.646,8.31a13.648,13.648,0,0,0,4.479,6.458c2.191,1.549,5.405,1.958,7.591.39,2.024-1.473,2.621-4.13,3.067-6.554,3.674,1.29,8.133-2.161,7.657-5.931-.116-.931-.46-1.948.025-2.763.972-1.609,4.049-.673,5.061-2.262a1.69,1.69,0,0,0,.253-.916A.642.642,0,0,0,943.469,377.248Zm-49.145,13.047c-.056.906,1.189,8.183,2.2,13.942a17.674,17.674,0,0,0-5.774-10.046,4.54,4.54,0,0,0-.041-.506h.041s-.137-1.447-.157-3.507a38.618,38.618,0,0,1,.4-5.456v-.046h-.066a2.862,2.862,0,0,1,.066-.461,16.447,16.447,0,0,1,1.23-4.423,12.294,12.294,0,0,1,.936-1.589C893.707,383.1,894.375,389.379,894.324,390.295Zm2.723,16.863c.445,2.485.764,4.231.764,4.231L900.5,429.84v.086c-1.447-7.789-3.295-16-3.295-16a31.892,31.892,0,0,0-.157-6.771Z" transform="translate(-525.661 -240.009)" fill="url(#a)"/><path d="M889.592,340.025c-.506-4.676-5.567-8.71-4.049-13.158.825-2.424,3.406-3.907,4.276-6.316.577-1.589.319-3.335.324-5.025s.4-3.578,1.807-4.514c3.036-2.024,6.943,2.141,10.486,1.291a18.56,18.56,0,0,0,2.495-1.063c4.135-1.645,8.811,1.351,11.134,5.137s3.193,8.3,5.187,12.277a10.071,10.071,0,0,0,3.067,3.9,4.767,4.767,0,0,0,4.747.552l5.795,12.905c1.518,3.325,3.259,6.928,6.579,8.391,1.488.653,3.148.8,4.686,1.331a10.121,10.121,0,0,1,6.579,7.667,18.887,18.887,0,0,0,.6,3.386c1.291,3.482,5.729,4.261,8.963,6.073a12.534,12.534,0,0,1,4.555,4.408c.506.875.941,2.024.4,2.885-.977,1.579-3.948.648-4.889,2.252-.476.81-.142,1.822,0,2.753.46,3.75-3.856,7.186-7.409,5.9-.43,2.414-1.012,5.061-2.966,6.523-2.1,1.569-5.213,1.154-7.333-.385a13.563,13.563,0,0,1-4.327-6.427c-1.119-2.986-1.954-6.356-4.5-8.274-.921-.688-2.024-1.134-2.925-1.827-2.024-1.549-3.036-4.1-3.76-6.579a68.86,68.86,0,0,0-3.036-9.175,13.81,13.81,0,0,0-6.442-6.959c-2.758-1.24-5.936-1.159-8.786-2.166-4.9-1.731-8.533-5.855-13.411-7.8a21.707,21.707,0,0,1-4.4-2.49C890.584,343.887,889.916,342.951,889.592,340.025Z" transform="translate(-551.142 -203.049)" fill="#3f3d56"/><g transform="translate(334.154 108.991)" opacity="0.1"><path d="M894.72,321.308a5.147,5.147,0,0,0,.273-.612c.572-1.589.319-3.335.324-5.025a9.012,9.012,0,0,1,.157-1.68,7.089,7.089,0,0,0-.663,3.2A23.272,23.272,0,0,1,894.72,321.308Z" transform="translate(-889.968 -313.99)"/><path d="M952.472,411.25c-2.1,1.564-5.213,1.154-7.333-.39a13.341,13.341,0,0,1-4.307-6.432c-1.118-2.986-1.948-6.356-4.5-8.274-.916-.688-2.024-1.139-2.92-1.827-2.024-1.549-3.036-4.1-3.765-6.554a68.131,68.131,0,0,0-3.037-9.175,13.809,13.809,0,0,0-6.442-6.959c-2.753-1.24-5.931-1.159-8.78-2.166-4.909-1.731-8.538-5.855-13.411-7.8a21.988,21.988,0,0,1-4.408-2.49c-2.4-1.655-3.036-2.591-3.391-5.511-.506-4.383-4.96-8.2-4.266-12.333a6.39,6.39,0,0,0-.3.688c-1.518,4.453,3.543,8.487,4.049,13.158.329,2.92,1.012,3.856,3.391,5.511a21.986,21.986,0,0,0,4.408,2.49c4.873,1.943,8.5,6.073,13.411,7.8,2.849,1.012,6.027.926,8.781,2.166a13.917,13.917,0,0,1,6.442,6.959,62.049,62.049,0,0,1,3.036,9.175c.744,2.449,1.721,5.005,3.765,6.554.916.688,2.024,1.139,2.92,1.827,2.531,1.918,3.381,5.289,4.5,8.274a13.558,13.558,0,0,0,4.332,6.422c2.12,1.538,5.233,1.953,7.333.39a7.473,7.473,0,0,0,2.475-4.211,6.215,6.215,0,0,1-1.984,2.708Z" transform="translate(-885.331 -327.499)"/><path d="M1038.305,447.613a2.132,2.132,0,0,0-.243,1.184c1.144-1.129,3.725-.466,4.625-1.918a1.845,1.845,0,0,0,.233-1.189C1041.747,446.8,1039.166,446.14,1038.305,447.613Z" transform="translate(-960.765 -379.04)"/><path d="M1023.554,463.582c-.1.506-.192,1.048-.314,1.574,3.1.967,6.675-1.518,7.181-4.656C1029.191,462.914,1026.155,464.528,1023.554,463.582Z" transform="translate(-953.447 -386.355)"/></g><path d="M901.963,370.866s1.685,3.4-3.289,3.472,3.2,22.085,3.2,22.085l8.269,10.526,10.289-5.567.592-15.354.759-9.276s-9.615-3.122-7.844-7.252S901.963,370.866,901.963,370.866Z" transform="translate(-539.772 -232.964)" fill="#fbbebe"/><path d="M965.75,543.518s6.073,5.977,13.158-1.953l-5.44-5.774h-6.883Z" transform="translate(-590.897 -327.617)" fill="#575a89"/><path d="M966.235,535.79l-.835,7.728s6.073,5.977,13.158-1.953" transform="translate(-590.724 -327.617)" opacity="0.1"/><path d="M980.656,537.87s2.444,6.412,4.216,8.35,4.555,15.349.845,13.831-10.795-12.819-11.22-14.757a65.566,65.566,0,0,1-.587-7.424Z" transform="translate(-594.928 -330.118)" fill="#fbbebe"/><path d="M832.42,545.985l32.723,1.265-3.8-13.836-16.483-.334Z" transform="translate(-482.378 -307.771)" fill="#575a89"/><path d="M841.41,545.985l32.728,1.265-3.8-13.836-16.488-.334Z" transform="translate(-487.588 -307.771)" opacity="0.1"/><path d="M888.589,617.891c-.774,1.442-.476,6.432-.126,10.122.223,2.348.465,4.155.465,4.155s-12.232,3.8-14.084.506a10.006,10.006,0,0,1-.784-4.013,80.932,80.932,0,0,1,.784-12.353s-.506-11.215-.759-12.313c-.1-.44-.258-1.837-.41-3.35-.223-2.247-.435-4.747-.435-4.747l16.7-8.856s0,1.66-.03,4.216C889.819,599.282,889.551,616.119,888.589,617.891Z" transform="translate(-524.964 -361.728)" fill="#fbbebe"/><path d="M889.729,671.871s-12.232,3.8-14.084.506a10,10,0,0,1-.784-4.013c2.53-.385,10.233-1.447,14.4-.648C889.486,670.065,889.729,671.871,889.729,671.871Z" transform="translate(-525.667 -403.042)" opacity="0.1"/><path d="M889.143,736.624h-.192c-1.473.056-9.843,0-9.843,0a4.549,4.549,0,0,1-.344-.4,6.9,6.9,0,0,1-1.088-6.68c1.518-4.135,1.685-11.726,1.685-11.726a5.432,5.432,0,0,0,.086-3.036,5.482,5.482,0,0,1-.172-2.783,7.218,7.218,0,0,0-.506-1.938,5.78,5.78,0,0,1,.086-2.87,21.481,21.481,0,0,0-.845-5.314c-.759-2.191-6.326-28.254-4.975-31.377,0,0,11.807-2.024,16.281-.506l-.592,20.243s-2.11,6.073-.339,7.677.086,6.579.086,6.579-.253.926,1.265,4.049,0,4.555,0,4.555v5.987s-1.179,4.049.167,7.338S889.735,736.518,889.143,736.624Z" transform="translate(-524.841 -418.411)" fill="#3f3d56"/><path d="M935.879,615.371c-.774,1.442-.476,6.432-.127,10.121.223,2.348.466,4.155.466,4.155s-12.232,3.8-14.084.506a10.005,10.005,0,0,1-.784-4.013,80.951,80.951,0,0,1,.784-12.353s-.506-11.215-.759-12.313c-.137-.592-.374-6.24-.562-11.306-.157-4.322-.283-8.229-.283-8.229l16.7,2.581s0,7.343-.208,14.889C936.841,606.728,936.5,614.228,935.879,615.371Z" transform="translate(-552.248 -359.095)" fill="#fbbebe"/><path d="M937.019,671.871s-12.232,3.8-14.084.506a10.006,10.006,0,0,1-.784-4.013c2.53-.385,10.233-1.447,14.4-.648C936.776,670.065,937.019,671.871,937.019,671.871Z" transform="translate(-552.938 -403.042)" opacity="0.1"/><path d="M936.418,736.6h-.192c-1.473.056-9.843,0-9.843,0a4.55,4.55,0,0,1-.344-.4,6.9,6.9,0,0,1-1.088-6.68c1.518-4.155,1.67-11.746,1.67-11.746a5.433,5.433,0,0,0,.086-3.036,5.482,5.482,0,0,1-.172-2.783,7.212,7.212,0,0,0-.506-1.938,5.783,5.783,0,0,1,.086-2.87,21.487,21.487,0,0,0-.845-5.314c-.759-2.191-6.326-28.254-4.975-31.377,0,0,11.807-2.024,16.281-.506l-.592,20.243s-2.11,6.073-.339,7.677.086,6.579.086,6.579-.253.926,1.265,4.049,0,4.555,0,4.555v5.987s-1.179,4.049.167,7.338S937.01,736.5,936.418,736.6Z" transform="translate(-552.114 -418.392)" fill="#3f3d56"/><circle cx="11.893" cy="11.893" r="11.893" transform="translate(357.072 122.081)" opacity="0.1"/><circle cx="11.893" cy="11.893" r="11.893" transform="translate(357.072 121.661)" fill="#fbbebe"/><path d="M873.24,595.9l16.7-8.856s0,1.66-.03,4.216c-2.439,1.458-6.119,3.649-9.656,5.719-1.923,1.129-3.8,2.222-5.41,3.138a7.166,7.166,0,0,1-1.169.506C873.453,598.4,873.24,595.9,873.24,595.9Z" transform="translate(-524.964 -357.577)" opacity="0.1"/><path d="M937.25,584.481s0,7.343-.207,14.889h-.061a28.046,28.046,0,0,1-3.74-.117c-2.181-.233-3.927-.81-4.555-1.953-1.27-2.227-4.828-5.061-7.834-7.171-.157-4.322-.283-8.229-.283-8.229Z" transform="translate(-552.268 -355.055)" opacity="0.1"/><path d="M893.232,419.892a48.172,48.172,0,0,0-.243,9.934c7.672,6.326,6.24,19.651,6.24,19.651s5.906,26.994,4.641,29.439,2.865,17.46,2.865,17.46a73.656,73.656,0,0,1-10.663,1.225,28.076,28.076,0,0,1-3.74-.116c-2.181-.233-3.927-.81-4.555-1.953-2.358-4.13-12.566-10.289-12.566-10.289s-6.468,3.877-12.49,7.4c-1.923,1.129-3.8,2.222-5.41,3.138a10.04,10.04,0,0,1-4.226,1.159c-7.161.531-16.7-3.953-15.182-5.542,1.857-1.943,11.053-36.017,11.053-36.017s4.635-21.088,8.684-24.039a4.379,4.379,0,0,0,1.518-2.12c1.387-3.851-.931-10.025-.931-10.025s-13.072-16.109-12.485-17.04.592-5.9.592-5.9,1.6-7.844,2.53-11.64,7.591-4.727,9.529-4.388,6.321,1.518,8.173,0,4.98.592,4.98.592l7.682,2.115,6.908-4.049s6.923.354,7.515,1.28,9.7,2.7,9.7,2.7c4.636,3.117,4.469,17.966,4.469,17.966s-11.134,9.7-13.411,14.676A16.732,16.732,0,0,0,893.232,419.892Z" transform="translate(-511.658 -247.468)" fill="#575a89"/><path d="M960.863,418.2l2.53,2.024,2.616,23.533,2.611,23.619s1.012,2.363,1.857,2.11.759,14,.759,14-9.686-5.957-13.158,1.953l-2.7-19.074s-3.462-19.484-3.376-21S950.23,427.4,950.23,427.4Z" transform="translate(-583.232 -264.986)" fill="#575a89"/><path d="M853.958,420.37l-1.857,2.277s.172,9.782-1.265,12.146,3.968,16.195,5.992,15.349,6.579-22.434,6.579-22.687S853.958,420.37,853.958,420.37Z" transform="translate(-511.424 -262.707)" fill="#575a89"/><path d="M851.535,447.87s-5.906,5.987-5.486,8.856,6.073,11.883,14.17,7.039C860.219,463.766,867.73,449.641,851.535,447.87Z" transform="translate(-509.17 -277.563)" fill="#575a89"/><path d="M894.747,800.947c-1.473.056-9.843,0-9.843,0a4.53,4.53,0,0,1-.344-.4C886.7,799.813,891.326,798.72,894.747,800.947Z" transform="translate(-530.669 -482.719)" opacity="0.1"/><path d="M942.057,800.947c-1.473.056-9.843,0-9.843,0a4.552,4.552,0,0,1-.344-.4C934,799.813,938.626,798.72,942.057,800.947Z" transform="translate(-574.163 -482.719)" opacity="0.1"/><path d="M878.266,509.11c-1.291,12.379-.866,36.944-.6,47.855-1.923,1.129-3.8,2.222-5.41,3.138a10.039,10.039,0,0,1-4.226,1.159C867.5,557.962,874.926,524.07,878.266,509.11Z" transform="translate(-521.143 -316.76)" opacity="0.1"/><path d="M889.859,495.23c-.035.177-.648,2.87-1.579,7.024C888.645,498.707,889.151,496.161,889.859,495.23Z" transform="translate(-531.745 -303.972)" opacity="0.1"/><path d="M918.274,492.59s7.171,45.041-14.064,50.608C904.205,543.177,918.9,540.946,918.274,492.59Z" transform="translate(-542.64 -306.899)" opacity="0.1"/><path d="M943.759,553.241a28.089,28.089,0,0,1-3.74-.116L934.29,491.54C937.944,493.929,942.316,537.634,943.759,553.241Z" transform="translate(-575.359 -307.592)" opacity="0.1"/><path d="M899.637,335.948a3.134,3.134,0,0,1,1.129.116,4.924,4.924,0,0,1,1.427,1.073,5.086,5.086,0,0,0,4.828.936,6.362,6.362,0,0,1,1.817-.506,2.894,2.894,0,0,1,2.3,1.518c.5.81.759,1.771,1.189,2.637a3.314,3.314,0,0,0,2.065,1.9,3.614,3.614,0,0,1,1.316.3,1.863,1.863,0,0,1,.567.784c.789,1.705,1.417,3.72,3.1,4.555a4.64,4.64,0,0,0,1.979.43,4.134,4.134,0,0,0,2.024-.364,3.877,3.877,0,0,0,1.488-1.483,9.247,9.247,0,0,0,.926-5.916,16.276,16.276,0,0,0-2.647-7.115,14.853,14.853,0,0,0-13.588-6.27,18.946,18.946,0,0,0-2.707.506,14.792,14.792,0,0,0-8.33,5.167,17.556,17.556,0,0,1-1.554,1.913C897.856,336.044,898.746,335.968,899.637,335.948Z" transform="translate(-540.285 -208.794)" opacity="0.1"/><path d="M899.637,334.948a3.135,3.135,0,0,1,1.129.116,4.924,4.924,0,0,1,1.427,1.073,5.086,5.086,0,0,0,4.828.936,6.368,6.368,0,0,1,1.817-.506,2.894,2.894,0,0,1,2.3,1.518c.5.81.759,1.771,1.189,2.637a3.314,3.314,0,0,0,2.065,1.9,3.615,3.615,0,0,1,1.316.3,1.863,1.863,0,0,1,.567.784c.789,1.705,1.417,3.72,3.1,4.555a4.639,4.639,0,0,0,1.979.43,4.133,4.133,0,0,0,2.024-.364,3.877,3.877,0,0,0,1.488-1.483,9.248,9.248,0,0,0,.926-5.916,16.276,16.276,0,0,0-2.647-7.115,14.854,14.854,0,0,0-13.588-6.27,18.929,18.929,0,0,0-2.707.506,14.792,14.792,0,0,0-8.33,5.167,17.556,17.556,0,0,1-1.554,1.913C897.856,335.044,898.746,334.968,899.637,334.948Z" transform="translate(-540.285 -208.215)" fill="#3f3d56"/><path d="M874.722,398.2s.592,4.727-1.432,5.906S874.722,398.2,874.722,398.2Z" transform="translate(-522.833 -248.026)" opacity="0.1"/><path d="M961.57,465.246s4.808-7.085,5.486-5.061S961.57,465.246,961.57,465.246Z" transform="translate(-588.833 -283.447)" opacity="0.1"/><path d="M962.24,471.227s4.742-5.82,5.2-3.543S962.24,471.227,962.24,471.227Z" transform="translate(-589.164 -287.554)" opacity="0.1"/><path d="M906.823,459.559a7.7,7.7,0,0,1-4.767-1.569h-.415a7.49,7.49,0,0,1-5.208,1.958,7.389,7.389,0,0,1-5.4-2.166h-.552a7.951,7.951,0,0,1-10.263-.187l-1.979-.035s2.318,6.174.931,10.025l33.821.6a48.163,48.163,0,0,1,.243-9.934v-.046l-1.857-.035a7.784,7.784,0,0,1-4.555,1.387Z" transform="translate(-530.26 -282.585)" opacity="0.1"/><path d="M906.823,461.559a7.7,7.7,0,0,1-4.767-1.569h-.415a7.49,7.49,0,0,1-5.208,1.958,7.389,7.389,0,0,1-5.4-2.166h-.552a7.951,7.951,0,0,1-10.263-.187l-1.979-.035s2.318,6.174.931,10.025l33.821.6a48.163,48.163,0,0,1,.243-9.934v-.046l-1.857-.035a7.784,7.784,0,0,1-4.555,1.387Z" transform="translate(-530.26 -283.738)" opacity="0.1"/><path d="M906.823,460.559a7.7,7.7,0,0,1-4.767-1.569h-.415a7.49,7.49,0,0,1-5.208,1.958,7.389,7.389,0,0,1-5.4-2.166h-.552a7.951,7.951,0,0,1-10.263-.187l-1.979-.035s2.318,6.174.931,10.025l33.821.6a48.164,48.164,0,0,1,.243-9.934v-.046l-1.857-.035a7.784,7.784,0,0,1-4.555,1.387Z" transform="translate(-530.26 -283.161)" fill="#3f3d56"/><path d="M931.75,395.83s7.12.455,7.166,1.468S931.75,395.83,931.75,395.83Z" transform="translate(-574.104 -246.357)" opacity="0.1"/><path d="M890.576,387.3s-7.121.455-7.166,1.468S890.576,387.3,890.576,387.3Z" transform="translate(-529.631 -241.454)" opacity="0.1"/><path d="M942.919,428.057c-.071-.051-.142-.091-.213-.137,1.822,1.64,1.518,5.223-.719,8.178s-5.633,4.185-7.7,2.859c.066.056.122.116.192.172,2.024,1.549,5.567.334,7.905-2.723S944.953,429.61,942.919,428.057Z" transform="translate(-575.358 -265.594)" opacity="0.1"/><path d="M872.434,435.328c-1.8-3.249-1.569-6.837.471-8.2-.076.035-.157.066-.233.106-2.237,1.245-2.53,4.975-.678,8.335s5.192,5.061,7.429,3.836a1.95,1.95,0,0,0,.212-.142C877.4,440.278,874.235,438.577,872.434,435.328Z" transform="translate(-522.567 -265.201)" opacity="0.1"/><path d="M876.548,388h0l-.653,1.012-1.665-.886.875-1.346a3.669,3.669,0,0,1,1.442,1.22Z" transform="translate(-523.76 -241.191)" opacity="0.1"/><path d="M856.3,440.97s1.483-6.974-.506-9.19-1.351-13.836,1.685-13.583,7.591,9.443,6.832,11.387-3.629,11.893-3.629,11.893Z" transform="translate(-513.39 -260.895)" fill="#fbbebe"/><path d="M924.834,352.148a3.876,3.876,0,0,1-1.488,1.483,4.136,4.136,0,0,1-2.024.364,4.642,4.642,0,0,1-1.979-.43c-1.685-.84-2.313-2.854-3.1-4.555a1.862,1.862,0,0,0-.516-.8,3.612,3.612,0,0,0-1.3-.319,3.34,3.34,0,0,1-2.065-1.9c-.435-.86-.693-1.812-1.189-2.637a2.787,2.787,0,0,0-2.3-1.518,6.22,6.22,0,0,0-1.817.531,5.1,5.1,0,0,1-4.828-.941,4.926,4.926,0,0,0-1.427-1.073,3.13,3.13,0,0,0-1.129-.116c-.582,0-1.159.056-1.741.1a12.692,12.692,0,0,1-.926,1.083c.886-.076,1.776-.152,2.667-.172a3.133,3.133,0,0,1,1.129.116,4.924,4.924,0,0,1,1.427,1.073,5.1,5.1,0,0,0,4.828.941,6.22,6.22,0,0,1,1.817-.531,2.894,2.894,0,0,1,2.3,1.518c.5.81.759,1.771,1.189,2.637a3.313,3.313,0,0,0,2.065,1.9,3.613,3.613,0,0,1,1.3.319,1.862,1.862,0,0,1,.567.784c.79,1.706,1.417,3.72,3.1,4.555a4.639,4.639,0,0,0,1.979.43,4.135,4.135,0,0,0,2.024-.364,3.878,3.878,0,0,0,1.488-1.483,8.4,8.4,0,0,0,1.012-4.686A7.732,7.732,0,0,1,924.834,352.148Z" transform="translate(-540.301 -215.188)" opacity="0.1"/><ellipse cx="4.555" cy="3.087" rx="4.555" ry="3.087" transform="translate(340.782 177.206)" fill="#575a89"/><circle cx="156.125" cy="156.125" r="156.125" transform="translate(14.4 8.68)" fill="#f39719"/><path d="M570.948,588.636c0,24.646-38.745,2.105-80.284,2.105S407.11,612.35,407.11,587.7c0-14.054,13.391-33.6,32.6-47.794h0c14.474-10.7,32.247-18.361,50.1-18.361,18.361,0,36.346,8.295,50.694,19.681C558.615,555.589,570.948,574.88,570.948,588.636Z" transform="translate(-320.653 -327.561)" fill="#444053"/><path d="M572.321,541.211c-22.08-3.325-62.015-7.379-100.791-1.321,14.474-10.7,32.247-18.36,50.1-18.36C539.987,521.53,557.973,529.825,572.321,541.211Z" transform="translate(-353.17 -320.384)" fill="#f6f8fb"/><path d="M361.583,281.31s-47.03,30.066-46.645,77.1S361.583,281.31,361.583,281.31Z" transform="translate(-257.658 -185.638)" opacity="0.05"/><path d="M840.274,113.466s-42.612-2.566-37.586,27.293c0,0-1.012,5.273,3.785,7.672,0,0,.076-2.212,4.368-1.463a19.736,19.736,0,0,0,4.631.223,9.616,9.616,0,0,0,5.658-2.338h0s11.979-4.944,16.64-24.525c0,0,3.446-4.271,3.31-5.364l-7.191,3.067s2.454,5.187.506,9.5c0,0-.233-9.307-1.615-9.109-.278.046-3.735,1.8-3.735,1.8s4.226,9.039,1.012,15.6c0,0,1.209-11.134-2.358-14.95l-5.061,2.955s4.939,9.332,1.589,16.949c0,0,.86-11.68-2.652-16.23l-4.59,3.578s4.641,9.2,1.812,15.516c0,0-.37-13.6-2.8-14.626,0,0-4.013,3.543-4.625,4.995,0,0,3.178,6.675,1.209,10.2,0,0-1.209-9.059-2.2-9.109,0,0-4,6-4.418,10.122,0,0,.177-6.124,3.446-10.693a12.005,12.005,0,0,0-6.118,3.173s.622-4.246,7.085-4.615c0,0,3.3-4.555,4.19-4.828,0,0-6.453-.542-10.365,1.194,0,0,3.441-4,11.544-2.186l4.555-3.694s-8.492-1.164-12.1.121c0,0,4.145-3.543,13.315-.962l4.934-2.95s-7.242-1.559-11.559-1.012c0,0,4.555-2.454,13,.208l3.543-1.584s-5.309-1.043-6.863-1.2-1.635-.6-1.635-.6a18.4,18.4,0,0,1,9.985,1.159S840.4,113.937,840.274,113.466Z" transform="translate(-486.687 -78.433)" fill="#f39719"/><path d="M774.246,87.265S755.015,86.1,757.262,99.593a3.291,3.291,0,0,0,1.711,3.467s.03-1.012,1.974-.658a9.142,9.142,0,0,0,2.09.1,4.4,4.4,0,0,0,2.561-1.058h0s5.41-2.237,7.515-11.083c0,0,1.559-1.928,1.518-2.424l-3.249,1.387a5.811,5.811,0,0,1,.238,4.292s-.106-4.206-.729-4.1c-.126,0-1.69.81-1.69.81s1.913,4.084.471,7.05c0,0,.546-5.03-1.063-6.756l-2.287,1.336s2.232,4.221.719,7.662c0,0,.385-5.278-1.2-7.333L763.765,93.9s2.1,4.155.82,7.009c0,0-.167-6.144-1.27-6.609a12.691,12.691,0,0,0-2.09,2.257s1.437,3.036.547,4.61c0,0-.547-4.094-1.012-4.109,0,0-1.807,2.708-1.994,4.555a9.859,9.859,0,0,1,1.554-4.833,5.42,5.42,0,0,0-2.763,1.432s.278-1.918,3.208-2.085a12.619,12.619,0,0,1,1.893-2.181,11.866,11.866,0,0,0-4.681.542s1.554-1.812,5.218-1.012l2.024-1.665s-3.836-.506-5.466.051c0,0,1.873-1.6,6.017-.43L768,90.089a20.249,20.249,0,0,0-5.223-.45s2.06-1.108,5.876.1l1.594-.719s-2.4-.471-3.1-.542-.744-.268-.744-.268a8.3,8.3,0,0,1,4.5.506S774.3,87.478,774.246,87.265Z" transform="translate(-458.037 -65.506)" fill="#f39719"/><ellipse cx="13.629" cy="2.303" rx="13.629" ry="2.303" transform="translate(440.845 299.483)" fill="#f39719" opacity="0.1"/><ellipse cx="13.629" cy="2.303" rx="13.629" ry="2.303" transform="translate(10.045 337.788)" fill="#f39719" opacity="0.1"/><ellipse cx="13.629" cy="2.303" rx="13.629" ry="2.303" transform="translate(74.24 340.678)" fill="#f39719" opacity="0.1"/><ellipse cx="20.349" cy="3.441" rx="20.349" ry="3.441" transform="translate(404.296 323.02)" fill="#f39719"/><path d="M1062.394,798.246a5.937,5.937,0,0,0,1.943-2.93,2.611,2.611,0,0,0-1.356-2.981c-1.245-.476-2.576.39-3.583,1.26s-2.166,1.862-3.487,1.68a5.3,5.3,0,0,0,1.64-4.965,2.088,2.088,0,0,0-.455-1.012c-.693-.739-1.943-.425-2.773.157-2.632,1.852-3.366,5.425-3.381,8.644a16.25,16.25,0,0,1-.046-3.542,3.659,3.659,0,0,0-1.336-3.153,4.046,4.046,0,0,0-2.024-.476,4.212,4.212,0,0,0-3.31.936,3.256,3.256,0,0,0,.131,4.049,13.124,13.124,0,0,0,3.421,2.743,7.588,7.588,0,0,1,2.449,2.333,2.446,2.446,0,0,1,.182.42h7.414A20.631,20.631,0,0,0,1062.394,798.246Z" transform="translate(-629.337 -477.406)" fill="#f39719"/><path d="M101.855,723.55s2.778,3.634-1.285,9.109S93.156,742.781,94.5,746.2c0,0,6.129-10.192,11.134-10.339S107.341,729.679,101.855,723.55Z" transform="translate(-71.82 -445.145)" fill="#f39719"/><path d="M102.015,723.55a4.558,4.558,0,0,1,.567,1.139c4.868,5.719,7.46,11.058,2.783,11.189C101,736,95.75,743.8,94.52,745.767a4.73,4.73,0,0,0,.152.451s6.129-10.193,11.134-10.339S107.5,729.679,102.015,723.55Z" transform="translate(-71.98 -445.145)" opacity="0.1"/><path d="M118.913,731.891c0,1.28-.147,2.318-.324,2.318s-.319-1.012-.319-2.318.177-.678.359-.678S118.913,730.611,118.913,731.891Z" transform="translate(-83.711 -448.856)" fill="#ffd037"/><path d="M120.86,734.866c-1.123.612-2.1.982-2.186.825s.759-.774,1.883-1.387.678-.167.764,0S122,734.254,120.86,734.866Z" transform="translate(-83.907 -450.302)" fill="#ffd037"/><path d="M74.215,723.55s-2.778,3.634,1.28,9.109,7.414,10.122,6.073,13.543c0,0-6.134-10.192-11.134-10.339S68.724,729.679,74.215,723.55Z" transform="translate(-58.866 -445.145)" fill="#f39719"/><path d="M74.207,723.55a4.373,4.373,0,0,0-.567,1.139c-4.868,5.719-7.465,11.058-2.783,11.189,4.357.127,9.615,7.92,10.84,9.889a4.7,4.7,0,0,1-.147.451s-6.134-10.193-11.134-10.339S68.716,729.679,74.207,723.55Z" transform="translate(-58.859 -445.145)" opacity="0.1"/><path d="M70.1,731.891c0,1.28.142,2.318.319,2.318s.319-1.012.319-2.318-.177-.678-.354-.678S70.1,730.611,70.1,731.891Z" transform="translate(-59.918 -448.856)" fill="#ffd037"/><path d="M65.926,734.866c1.123.612,2.105.982,2.191.825s-.759-.774-1.883-1.387-.683-.167-.764,0S64.8,734.254,65.926,734.866Z" transform="translate(-57.52 -450.302)" fill="#ffd037"/><path d="M71.85,763.293s7.773-.238,10.122-1.908,11.959-3.659,12.541-1.012,11.68,13.31,2.9,13.381-20.39-1.372-22.728-2.794S71.85,763.293,71.85,763.293Z" transform="translate(-60.783 -462.697)" fill="#a8a8a8"/><path d="M97.564,776.945c-8.775.071-20.39-1.371-22.728-2.793-1.781-1.083-2.49-4.975-2.728-6.771H71.85s.506,6.27,2.829,7.692,13.953,2.864,22.728,2.794c2.53,0,3.406-.926,3.36-2.257C100.413,776.424,99.451,776.93,97.564,776.945Z" transform="translate(-60.783 -466.794)" opacity="0.2"/><path d="M423.668,449.114c2.971-.167,16.954-1.22,25.835-6.285a10.066,10.066,0,0,1,4.691-1.382c2.824-.081,6.073,1.1,3.993,7.7-3.371,10.795-22.941,22.94-35.086,22.267-11.68-.648-25.537-5.354-34.687-21.9a10.122,10.122,0,0,1-1.25-5.208c.106-3.34,1.321-7.525,7.591-2.859,8.472,6.3,24.545,7.495,27.768,7.672a10.657,10.657,0,0,0,1.144,0Z" transform="translate(-301.211 -273.943)" fill="#444053"/><path d="M645.668,449.114c2.971-.167,16.953-1.22,25.835-6.285a10.065,10.065,0,0,1,4.691-1.382c2.824-.081,6.073,1.1,3.993,7.7-3.37,10.795-22.941,22.94-35.086,22.267-11.68-.648-25.537-5.354-34.687-21.9a10.121,10.121,0,0,1-1.25-5.208c.106-3.34,1.321-7.525,7.591-2.859,8.472,6.3,24.545,7.495,27.768,7.672a10.654,10.654,0,0,0,1.144,0Z" transform="translate(-431.384 -273.943)" fill="#444053"/></svg>