<svg xmlns="http://www.w3.org/2000/svg" width="291.63" height="244.59" viewBox="0 0 291.63 244.59"><path d="M495.833,610.216l-54.631-98.5a1.47,1.47,0,0,0-.729-1.177,1.453,1.453,0,0,0-.789-.191h-.053a1.45,1.45,0,0,0-1.512,1.321l-57.9,98.544a1.468,1.468,0,0,0,2.543,1.468l56.856-96.767,53.672,96.767a1.468,1.468,0,0,0,2.543-1.468Z" transform="translate(-305.991 -368.361)" fill="#3f3d56"/><path d="M370.59,635.875l6.175-1.417-2.526-24.492-9.114,2.091Z" transform="translate(-245.976 -410.92)" fill="#ffb6b6"/><path d="M399.982,604.1l-8.788,2.016-2.81-5.491-.159-.195a8.738,8.738,0,0,1-1.963-5.41l-7.3-19.321-.6-.284a3.6,3.6,0,0,1-1.476-5.2l-.773-2.045-21.819.04-.022-.006-26.793-7.516,2.813-16.77,7.537,4.741c2.484-.161,45.026-2.773,48.957,6.761,3.5,8.49,8.543,23,12.158,33.668a8.334,8.334,0,0,0,.669,1.379,6.018,6.018,0,0,1,.958,2.893,7.046,7.046,0,0,0,.255,1.324c1.5,4.491-.786,9.3-.81,9.346Z" transform="translate(-270.594 -390.974)" fill="#2f2e41"/><path d="M528.638,747.078l2.008-.461,7.107-4.986,4.932,2.223h0a9.185,9.185,0,0,1,11.005,6.9l.067.291-23,5.277Z" transform="translate(-406.11 -524.17)" fill="#2f2e41"/><path d="M249.025,726.772c.628-6.834,4.631-13.675,11.051-16.1a31.617,31.617,0,0,0,.7,21.7c1.084,2.666,2.568,5.518,1.717,8.268A7.068,7.068,0,0,1,259,744.549a20.99,20.99,0,0,1-5.067,1.738l-.335.3C250.624,740.4,248.4,733.606,249.025,726.772Z" transform="translate(-217.67 -503.314)" fill="#f0f0f0"/><path d="M269.471,710.5a27.025,27.025,0,0,0-6.226,15.417,11.636,11.636,0,0,0,.249,3.638,6.675,6.675,0,0,0,1.759,3.041,13.811,13.811,0,0,1,2.225,2.5,4.087,4.087,0,0,1,.307,3.328,10.619,10.619,0,0,1-2.239,3.583,10.426,10.426,0,0,0-2.487,3.984c-.048.189-.338.1-.29-.086.692-2.71,3.25-4.319,4.415-6.777a4.139,4.139,0,0,0,.163-3.639,10.719,10.719,0,0,0-2.211-2.577,7.123,7.123,0,0,1-1.83-2.909,10.759,10.759,0,0,1-.388-3.615,26.218,26.218,0,0,1,1.658-8.025,27.5,27.5,0,0,1,4.688-8.08C269.389,710.135,269.6,710.356,269.471,710.5Z" transform="translate(-226.997 -503.019)" fill="#fff"/><path d="M257.65,743.837a4.054,4.054,0,0,1-3.221-4.146.151.151,0,0,1,.3.005,3.754,3.754,0,0,0,3,3.85C257.927,743.586,257.84,743.876,257.65,743.837Z" transform="translate(-221.38 -522.766)" fill="#fff"/><path d="M268.876,767.956a7.814,7.814,0,0,0,3.343-4.61c.049-.189.339-.1.29.086a8.128,8.128,0,0,1-3.489,4.791C268.856,768.326,268.713,768.06,268.876,767.956Z" transform="translate(-231.067 -538.727)" fill="#fff"/><path d="M272.148,726.562a2.3,2.3,0,0,0,2.17-.18c.163-.107.307.159.145.266a2.572,2.572,0,0,1-2.4.2.156.156,0,0,1-.1-.188.152.152,0,0,1,.188-.1Z" transform="translate(-233.189 -513.88)" fill="#fff"/><path d="M289.64,744.776c-.1.07-.2.139-.3.211a30.232,30.232,0,0,0-3.766,3.14c-.092.087-.183.177-.272.267a31.862,31.862,0,0,0-6.612,9.69,30.943,30.943,0,0,0-1.553,4.438c-.558,2.094-1,4.409-2.18,6.146a5.3,5.3,0,0,1-.4.523l-11.182.359-.078-.033-.446.035c.015-.08.033-.162.048-.242.009-.046.02-.093.029-.139.007-.031.013-.062.018-.09,0-.01,0-.021.007-.028,0-.028.011-.054.015-.08q.146-.69.3-1.381s0,0,0-.005a45.5,45.5,0,0,1,3.5-10.17c.048-.1.1-.195.149-.291a29.528,29.528,0,0,1,2.522-4.106,26.1,26.1,0,0,1,1.674-2.043,21.706,21.706,0,0,1,5.3-4.241,17.236,17.236,0,0,1,12.888-2.051C289.421,744.714,289.53,744.743,289.64,744.776Z" transform="translate(-227.058 -525.895)" fill="#f0f0f0"/><path d="M289.708,745.788a27.024,27.024,0,0,0-14.254,8.561,11.636,11.636,0,0,0-1.991,3.055,6.675,6.675,0,0,0-.427,3.487,13.816,13.816,0,0,1,.274,3.333,4.087,4.087,0,0,1-1.759,2.842,10.616,10.616,0,0,1-3.945,1.513,10.427,10.427,0,0,0-4.384,1.684c-.152.122-.332-.122-.18-.243,2.184-1.747,5.195-1.492,7.605-2.753a4.139,4.139,0,0,0,2.321-2.807,10.719,10.719,0,0,0-.214-3.389,7.123,7.123,0,0,1,.29-3.425,10.759,10.759,0,0,1,1.866-3.12,26.219,26.219,0,0,1,6.156-5.409,27.5,27.5,0,0,1,8.608-3.629c.189-.044.221.257.033.3Z" transform="translate(-227.146 -526.764)" fill="#fff"/><path d="M302.562,757.26a4.054,4.054,0,0,1-.076-5.25c.124-.15.363.037.238.186a3.754,3.754,0,0,0,.08,4.883C302.934,757.225,302.69,757.4,302.562,757.26Z" transform="translate(-253.133 -531.125)" fill="#fff"/><path d="M293,787.5a7.815,7.815,0,0,0,5.445-1.668c.153-.121.332.122.18.243a8.128,8.128,0,0,1-5.67,1.724c-.194-.015-.149-.314.044-.3Z" transform="translate(-247.25 -553.925)" fill="#fff"/><path d="M326.128,752.519a2.3,2.3,0,0,0,1.841,1.163c.195.013.149.312-.044.3a2.572,2.572,0,0,1-2.04-1.282.156.156,0,0,1,.031-.212.152.152,0,0,1,.211.031Z" transform="translate(-269.502 -531.464)" fill="#fff"/><path d="M781.574,726.772c-.628-6.834-4.631-13.675-11.051-16.1a31.617,31.617,0,0,1-.7,21.7c-1.084,2.666-2.568,5.518-1.717,8.268a7.068,7.068,0,0,0,3.486,3.912,20.99,20.99,0,0,0,5.067,1.738l.335.3C779.976,740.4,782.2,733.606,781.574,726.772Z" transform="translate(-567.266 -503.314)" fill="#f0f0f0"/><path d="M775.742,710.5a27.024,27.024,0,0,1,6.227,15.417,11.64,11.64,0,0,1-.249,3.638,6.676,6.676,0,0,1-1.759,3.041,13.81,13.81,0,0,0-2.225,2.5,4.087,4.087,0,0,0-.307,3.328,10.616,10.616,0,0,0,2.239,3.583,10.426,10.426,0,0,1,2.487,3.984c.048.189.338.1.29-.086-.692-2.71-3.25-4.319-4.415-6.777a4.139,4.139,0,0,1-.163-3.639,10.719,10.719,0,0,1,2.211-2.577,7.123,7.123,0,0,0,1.83-2.909,10.761,10.761,0,0,0,.388-3.615,26.218,26.218,0,0,0-1.658-8.025,27.5,27.5,0,0,0-4.688-8.08c-.125-.149-.331.072-.207.22Z" transform="translate(-572.553 -503.019)" fill="#fff"/><path d="M794.435,743.835a4.055,4.055,0,0,0,3.221-4.146.151.151,0,0,0-.3.005,3.754,3.754,0,0,1-3,3.851C794.158,743.584,794.245,743.874,794.435,743.835Z" transform="translate(-585.041 -522.765)" fill="#fff"/><path d="M782.6,767.956a7.815,7.815,0,0,1-3.344-4.61c-.049-.189-.339-.1-.29.086a8.128,8.128,0,0,0,3.489,4.791C782.622,768.326,782.766,768.06,782.6,767.956Z" transform="translate(-574.748 -538.727)" fill="#fff"/><path d="M781.668,726.562a2.3,2.3,0,0,1-2.17-.18c-.163-.107-.307.159-.145.266a2.572,2.572,0,0,0,2.4.2.156.156,0,0,0,.1-.188.152.152,0,0,0-.188-.1Z" transform="translate(-574.963 -513.88)" fill="#fff"/><path d="M714.2,744.776c.1.07.2.139.3.211a30.219,30.219,0,0,1,3.766,3.14c.092.087.183.177.272.267a31.864,31.864,0,0,1,6.612,9.69,30.94,30.94,0,0,1,1.553,4.438c.558,2.094,1,4.409,2.18,6.146a5.306,5.306,0,0,0,.4.524l11.182.359.078-.033.446.035c-.015-.08-.033-.162-.049-.242-.009-.046-.02-.093-.029-.139-.007-.031-.013-.062-.018-.09,0-.01,0-.021-.007-.028,0-.028-.011-.054-.015-.08q-.146-.69-.3-1.381s0,0,0-.005a45.5,45.5,0,0,0-3.5-10.17c-.048-.1-.1-.195-.149-.291a29.53,29.53,0,0,0-2.522-4.106,26.106,26.106,0,0,0-1.674-2.043,21.707,21.707,0,0,0-5.3-4.241,17.236,17.236,0,0,0-12.888-2.051C714.42,744.714,714.312,744.743,714.2,744.776Z" transform="translate(-531.12 -525.895)" fill="#f0f0f0"/><path d="M714,745.788a27.025,27.025,0,0,1,14.254,8.561,11.635,11.635,0,0,1,1.991,3.055,6.676,6.676,0,0,1,.427,3.487,13.816,13.816,0,0,0-.274,3.333,4.087,4.087,0,0,0,1.759,2.842,10.619,10.619,0,0,0,3.945,1.513,10.428,10.428,0,0,1,4.384,1.683c.152.122.332-.121.18-.243-2.184-1.747-5.195-1.492-7.605-2.753a4.139,4.139,0,0,1-2.321-2.807,10.719,10.719,0,0,1,.214-3.389,7.123,7.123,0,0,0-.29-3.425,10.759,10.759,0,0,0-1.866-3.12,26.219,26.219,0,0,0-6.156-5.409,27.5,27.5,0,0,0-8.608-3.629c-.189-.044-.221.257-.033.3Z" transform="translate(-530.902 -526.764)" fill="#fff"/><path d="M753.931,757.26a4.054,4.054,0,0,0,.076-5.25c-.124-.15-.363.037-.238.186a3.754,3.754,0,0,1-.08,4.883C753.559,757.225,753.8,757.4,753.931,757.26Z" transform="translate(-557.696 -531.125)" fill="#fff"/><path d="M754.06,787.5a7.815,7.815,0,0,1-5.445-1.668c-.153-.121-.332.122-.18.243a8.128,8.128,0,0,0,5.67,1.724c.194-.015.149-.314-.044-.3Z" transform="translate(-554.143 -553.925)" fill="#fff"/><path d="M728.393,752.519a2.3,2.3,0,0,1-1.841,1.163c-.194.013-.149.312.044.3a2.572,2.572,0,0,0,2.04-1.282.156.156,0,0,0-.031-.212A.152.152,0,0,0,728.393,752.519Z" transform="translate(-539.356 -531.464)" fill="#fff"/><path d="M444.79,822.773a.389.389,0,0,1-.388.388H153.548a.388.388,0,1,1,0-.777H444.4A.389.389,0,0,1,444.79,822.773Z" transform="translate(-153.16 -578.572)" fill="#3f3d56"/><ellipse cx="1.468" cy="1.468" rx="1.468" ry="1.468" transform="translate(185.878 91.045)" fill="#3f3d56"/><path d="M670.435,367.225l19.8-12.438a1.565,1.565,0,1,1,1.542,2.72L670.932,368.1a.5.5,0,0,1-.5-.877Z" transform="translate(-501.477 -263.401)" fill="#e4e4e4"/><path d="M548.73,461.621a1.371,1.371,0,0,1,.023-1.563,3.227,3.227,0,0,1,1.294-1.026,10.8,10.8,0,0,1,3.377-1.067,4.945,4.945,0,0,0,2.564-.746c.689-.575,1.073-1.649,1.966-1.739.863-.087,1.527.858,2.392.917,1.067.072,1.765-1.176,2.8-1.432a3.255,3.255,0,0,1,2.061.427l3.912,1.775,2.005.91c.7.318,1.49.746,1.622,1.5.182,1.041-.976,1.775-1.966,2.145a31.644,31.644,0,0,1-21.9,0" transform="translate(-419.489 -331.015)" fill="#f39719"/><ellipse cx="51.396" cy="7.342" rx="51.396" ry="7.342" transform="translate(83.739 135.098)" fill="#3f3d56"/><rect width="41.117" height="5.874" rx="2.937" transform="translate(201.216 187.963)" fill="#3f3d56"/><path d="M904.747,484.684l-11.64,55.3,3.032,14.153,5.724,26.71v12.005a.249.249,0,0,1,0,.049,2.263,2.263,0,0,1-.144.777h-4.6a2.263,2.263,0,0,1-.144-.777.258.258,0,0,1,0-.049v-11.49l-5.2-24.243-1.051-4.895-2.033-9.486-.587-2.748v0l.581-2.754.447-2.124,10.828-51.425a2.447,2.447,0,1,1,4.79,1.005Z" transform="translate(-648.272 -349.083)" fill="#3f3d56"/><path d="M776.166,655.182v52.865a.258.258,0,0,1,0,.049,2.263,2.263,0,0,1-.144.777h-4.6a2.263,2.263,0,0,1-.144-.777.249.249,0,0,1,0-.049V655.182a2.447,2.447,0,0,1,4.895,0Z" transform="translate(-569.566 -464.283)" fill="#3f3d56"/><path d="M625.423,558h23.5a8.811,8.811,0,0,1,8.811,8.811H616.612A8.811,8.811,0,0,1,625.423,558Z" transform="translate(-415.396 -375.911)" fill="#3f3d56"/><path d="M814.836,702.63H773.719a2.447,2.447,0,0,1,0-4.895h41.117a2.447,2.447,0,0,1,0,4.895Z" transform="translate(-569.567 -494.598)" fill="#3f3d56"/><rect width="47.347" height="6.764" rx="3.382" transform="translate(98.423 193.926) rotate(180)" fill="#3f3d56"/><path d="M279.214,521.481l-.751,3.094-2.754,11.33-1.188,4.895L269.006,563.5v9.852a2.412,2.412,0,0,1-.411,1.354,2.363,2.363,0,0,1-.839.777h-2.4a2.363,2.363,0,0,1-.839-.777,2.413,2.413,0,0,1-.411-1.354V562.917l6.128-25.225L274.2,521.4l-13.412-63.715a2.446,2.446,0,1,1,4.787-1.005l12.4,58.879.571,2.715.666,3.165Z" transform="translate(-225.628 -330.897)" fill="#3f3d56"/><path d="M441.807,654.093v51.915a2.412,2.412,0,0,1-.411,1.354,2.363,2.363,0,0,1-.839.777h-2.4a2.381,2.381,0,0,1-.835-.777,2.412,2.412,0,0,1-.411-1.354V654.093a2.447,2.447,0,1,1,4.895,0Z" transform="translate(-344.317 -463.548)" fill="#3f3d56"/><path d="M0,0H47.347V1.335a8.811,8.811,0,0,1-8.811,8.811H8.811A8.811,8.811,0,0,1,0,1.335Z" transform="translate(98.423 190.544) rotate(180)" fill="#3f3d56"/><path d="M341.611,708.357H294.264a2.447,2.447,0,1,1,0-4.895h47.347a2.447,2.447,0,1,1,0,4.895Z" transform="translate(-246.57 -498.456)" fill="#3f3d56"/><path d="M467.094,659.184l-5.144-2.46,7.066-21.5,7.592,3.631Z" transform="translate(-311.204 -427.934)" fill="#9e616a"/><path d="M556.578,657.656l-5.531,1.365-8.014-21.161,8.164-2.014Z" transform="translate(-365.828 -428.353)" fill="#9e616a"/><path d="M671.083,481.21a5.362,5.362,0,0,0,7.265,1.823,5.136,5.136,0,0,0,.689-.5l16.263,9.333-.706-9.58-15.335-7.394a5.343,5.343,0,0,0-6.481-.844,5.141,5.141,0,0,0-1.695,7.162Z" transform="translate(-501.533 -343.414)" fill="#9e616a"/><path d="M725.519,450.834l2.875,1.752,12.911,7.873a7.612,7.612,0,0,0,10.5-2.422,7.449,7.449,0,0,0,.949-5.258l-5.738-28.669a7.955,7.955,0,0,0-10.442-6.037,7.574,7.574,0,0,0-4.779,9.2l6,20.345-9.2-4.288Z" transform="translate(-538.744 -305.896)" fill="#e6e6e6"/><path d="M686.418,617.121l-8.851-17.752v-.041l.874-32.56c.011-.289.034-.58.07-.867a9.9,9.9,0,0,1,3.768-6.665,9.517,9.517,0,0,1,7.1-1.941l25.31,3.275.878-3.589.163-.06,24.251-8.888.14.228c3.176,5.168,5.4,15.49,6,18.531l.009.044c.013.064.02.1.023.114,1.248,5.189-3.91,13.784-9.049,15.076-10.824,2.759-20.5.607-31.714-1.885-4.019-.894-8.174-1.818-12.749-2.617l.136,2.693a20.181,20.181,0,0,0,1.277,6.057,10.464,10.464,0,0,1,.1,8.212l-.659,1.9a6.489,6.489,0,0,1-.667,5.753l-.133.2,5.837,14.771Z" transform="translate(-506.44 -393.749)" fill="#2f2e41"/><path d="M638.335,598.737l-10.555-.981,3.739-11.959a78.079,78.079,0,0,1,5.768-22.685l5.1-12.088c.012-.269.034-.54.067-.8a9.9,9.9,0,0,1,3.768-6.665,9.523,9.523,0,0,1,7.1-1.941l25.272,3.271,1.1-9.239,24.257-3.246.111.181c4.24,6.9,6.932,12.3,8.471,17,.077.239.146.484.2.727a9.786,9.786,0,0,1-6.994,11.806c-13.032,3.323-28.7,3.23-49.306-.292l-9.971,23.73a36.446,36.446,0,0,1-3.522,6.46Z" transform="translate(-472.9 -383.215)" fill="#2f2e41"/><ellipse cx="12.227" cy="12.499" rx="12.227" ry="12.499" transform="translate(190.026 70.726)" fill="#9e616a"/><path d="M744.926,438.112l-1.754-6.285-.431-3.1-2.521.084-4.949-11.422-1.922-3.012q-.588-.619-1.065-1.191a26.833,26.833,0,0,1-4.75-7.648,20.1,20.1,0,0,1-1.39-6.3c-.359-6.382,2.332-13.134,8.225-20.641a3.548,3.548,0,0,1-.192-.823,3.482,3.482,0,0,1,3.028-3.855l5.684-.638a3.355,3.355,0,0,1,2.488.725,3.488,3.488,0,0,1,1.288,2.368,3.566,3.566,0,0,1-.4,2.062,15.181,15.181,0,0,1,12.6,10.6,100.818,100.818,0,0,1,8.087,19.973,10.206,10.206,0,0,1,.048,4.107,11.588,11.588,0,0,0-.046,3.827,17.321,17.321,0,0,0,1.63,4.013,16.268,16.268,0,0,1,1.848,4.917l.016.118Z" transform="translate(-539.143 -276.007)" fill="#e4e4e4"/><path d="M730.931,438.74a26.745,26.745,0,0,0,4.724,7.605c.341.407.7.807,1.078,1.208l1.934,3.035c7.13-5.344,12.906-26.386,12.906-26.386l-8.044-1.565Z" transform="translate(-542.39 -309.271)" opacity="0.2"/><path d="M695.1,366.793a5.375,5.375,0,0,1-1.815,7.274,5.158,5.158,0,0,1-.765.375l.569,18.742-8.116-5.109.7-17.015a5.36,5.36,0,0,1,2.309-6.123,5.129,5.129,0,0,1,7.115,1.855Z" transform="translate(-511.429 -269.901)" fill="#9e616a"/><path d="M693.6,413.465l-8.926,1.269.384,18.484a7.733,7.733,0,0,0,3.781,6.517h0a7.41,7.41,0,0,0,8.851-1l21.072-20.269a7.99,7.99,0,0,0,.589-10.971h0a7.577,7.577,0,0,0-10.856-.743,7.776,7.776,0,0,0-.593.591l-13.914,16.007Z" transform="translate(-511.231 -297.257)" fill="#e6e6e6"/><path d="M330.1,675.12h6.335l3.014-24.437H330.1Z" transform="translate(-222.381 -438.349)" fill="#ffb6b6"/><ellipse cx="12.645" cy="12.645" rx="12.645" ry="12.645" transform="translate(59.167 70.798)" fill="#ffb6b6"/><path d="M375.139,628.353h-8.971l-2.287-3.066-.619-2.889-.533-.516a4.447,4.447,0,0,1-.75-5.469l-6.5-30.336c-1.7-.15-20.907-1.867-34.257-4.229a11.728,11.728,0,0,1-7.928-4.936c-4.532-6.563-2.591-17.181-2.57-17.288l.022-.118.12-.014,31.182-3.5.042.02c1.035.49,25.388,12.052,29.368,16.031,1.8,1.8,5.807,12.475,6.7,23.826a17.939,17.939,0,0,1-.977,6.107,17.881,17.881,0,0,0-.958,5.644c.165,2.826.321,5.791.465,8.813a3.091,3.091,0,0,0,.736,1.461,3.006,3.006,0,0,1,.734,1.476,15.166,15.166,0,0,1-2.972,8.919Z" transform="translate(-259.015 -399.11)" fill="#2f2e41"/><path d="M481.059,433.792A4.817,4.817,0,0,0,474.991,438l-10.506,3.284.438,6.871,14.772-4.846a4.843,4.843,0,0,0,1.364-9.521Z" transform="translate(-362.892 -316.671)" fill="#ffb6b6"/><path d="M402.336,422.157l-7.852,2.972-.2.389a3.961,3.961,0,0,1-5.336,1.706h0L371.3,433.9s-7.882-7.887-13.493-14.926l1.912-11.763a22.535,22.535,0,0,1,2.777-7.742C374,402,380.608,418.084,380.608,418.084l20.741-3.957Z" transform="translate(-291.024 -293.666)" fill="#f39719"/><path d="M337.509,310.1a10.209,10.209,0,0,1-9.126-2.438,17.132,17.132,0,0,1-4.906-8.367c-.652-2.311-.961-4.877.068-7.047s3.8-3.634,5.935-2.538c-1.318-1.536-.66-4.076.88-5.39a10.135,10.135,0,0,1,5.667-1.9,20.578,20.578,0,0,1,8.721.614,9.517,9.517,0,0,1,6.177,5.822,4.431,4.431,0,0,0,5.285-1.193A4.014,4.014,0,0,1,354,292.017l4.26-1.381c.733,1.551-.551,3.47-2.193,3.967a7.18,7.18,0,0,1-4.972-.764,19.288,19.288,0,0,0-4.76-1.9c-1.692-.28-3.68.264-4.463,1.79a13.167,13.167,0,0,0-.669,2.6c-.238.866-.841,1.764-1.737,1.835-.566.045-1.12-.257-1.684-.195a1.815,1.815,0,0,0-1.421,1.389,5.328,5.328,0,0,0-.005,2.1l1.082,8.272" transform="translate(-267.494 -214.686)" fill="#2f2e41"/><path d="M306.049,456.869h-.007l-.1-.017-.029-.1c-.364-1.223-.826-2.474-1.273-3.685a44.43,44.43,0,0,1-1.666-5.135,39.33,39.33,0,0,1-.736-5.055c-.125-1.234-.254-2.509-.473-3.765a2.306,2.306,0,0,1,.629-1.6,2.114,2.114,0,0,0,.578-1.344,3.2,3.2,0,0,0-1.011-1.367,3.3,3.3,0,0,1-1.109-1.573,156.673,156.673,0,0,1-1.412-22.57c.1-10.443.577-17.56,1.4-21.156,2.221-9.668,12.482-11.432,14.088-11.65a3.546,3.546,0,0,1,4.8-1.978l7.29,3.337a11.869,11.869,0,0,1,6.31,7.048l1.083,3.3.542,22.164-3.006,15.608,5.874,8.811C306.515,453.337,306.15,456.869,306.049,456.869Z" transform="translate(-251.7 -277.556)" fill="#f39719"/><path d="M472.817,786.505h2.06l8.042-3.27,4.31,3.27h0a9.185,9.185,0,0,1,9.184,9.184v.3h-23.6Z" transform="translate(-368.505 -552.197)" fill="#2f2e41"/><path d="M483.209,481.244a4.817,4.817,0,0,0-6.956,2.483l-11,.429-1.482,5.123,15.637.8a4.843,4.843,0,0,0,3.8-8.836Z" transform="translate(-362.412 -348.307)" fill="#ffb6b6"/><path d="M397.81,445.348l-11.3-.141-1.43-.019L362.1,444.9s-6.242-5.955-11.678-12.086l.762-5.51a22.513,22.513,0,0,1,7.549-13.939c7.785,5.2,12.3,15.5,12.3,15.5l7.57,3.387h0a33.141,33.141,0,0,1,15.132,4.432l2.489,1.442Z" transform="translate(-286.048 -303.023)" fill="#f39719"/><path d="M710.885,784.235l-3.759.928-1.547-3.384-.843,3.973-9.97,2.461a2.309,2.309,0,0,1-2.282-3.771l6.605-7.464-.885-3.588,8.5-1.567Z" transform="translate(-516.099 -544.509)" fill="#2f2e41"/><path d="M593.33,779.9l-3.585-1.463.742-3.646-3.02,2.716-9.508-3.881a2.308,2.308,0,0,1,.376-4.392l9.733-2.145,1.4-3.422,7.792,3.737Z" transform="translate(-438.368 -539.017)" fill="#2f2e41"/><path d="M559.119,482.809h-2.937A11.924,11.924,0,0,1,544.271,470.9v-.163H571.03v.163A11.924,11.924,0,0,1,559.119,482.809Z" transform="translate(-416.642 -341.674)" fill="#e4e4e4"/><path d="M574.709,454.7c0,.811-1.469,1.468-1.469,1.468s-1.468-.657-1.468-1.468,1.468-1.468,1.468-1.468S574.709,453.893,574.709,454.7Z" transform="translate(-435.169 -329.884)" fill="#3f3d56"/><path d="M601.709,454.7c0,.811-1.469,1.468-1.469,1.468s-1.468-.657-1.468-1.468,1.468-1.468,1.468-1.468S601.709,453.893,601.709,454.7Z" transform="translate(-453.358 -329.884)" fill="#3f3d56"/><path d="M583.709,463.7c0,.811-1.468,1.468-1.468,1.468s-1.468-.657-1.468-1.468,1.468-1.468,1.468-1.468S583.709,462.893,583.709,463.7Z" transform="translate(-441.232 -335.947)" fill="#3f3d56"/><ellipse cx="1.468" cy="1.468" rx="1.468" ry="1.468" transform="translate(130.729 118.782)" fill="#3f3d56"/><path d="M491.642,434.054l23.16,3.2a1.565,1.565,0,1,1-.568,3.075l-22.775-5.282a.5.5,0,0,1,.183-.991Z" transform="translate(-380.801 -316.959)" fill="#e4e4e4"/><path d="M542.692,119.358V75.235h-2.937v44.123a16.152,16.152,0,0,0-14.685,16.084v4.405h10.279a5.874,5.874,0,1,0,11.748,0h10.279v-4.405a16.152,16.152,0,0,0-14.683-16.083Z" transform="translate(-403.707 -75.235)" fill="#f0f0f0"/><path d="M667.661,108.328V75.235h-2.2v33.093a12.114,12.114,0,0,0-11.013,12.063v3.3h7.709a4.405,4.405,0,1,0,8.811,0h7.709v-3.3a12.114,12.114,0,0,0-11.012-12.062Z" transform="translate(-490.863 -75.235)" fill="#f0f0f0"/><path d="M439.661,108.328V75.235h-2.2v33.093a12.114,12.114,0,0,0-11.013,12.063v3.3h7.709a4.405,4.405,0,1,0,8.811,0h7.709v-3.3a12.114,12.114,0,0,0-11.012-12.062Z" transform="translate(-337.265 -75.235)" fill="#f0f0f0"/><path d="M774.981,286.681c-2.078-2.424-3.066-5.639-4.728-8.391s-4.553-5.215-7.607-4.575a6.824,6.824,0,0,0-4.557,4.371,21.5,21.5,0,0,0-1.122,6.593,11.256,11.256,0,0,0-7.153-10.524,10.533,10.533,0,0,0-11.791,3.864,6.373,6.373,0,0,0-8.464-.178,7.1,7.1,0,0,0-1.14,8.761,6.416,6.416,0,0,0,8.2,2.187l.969.892a4.2,4.2,0,0,0,2.291,4.88c1.442.583,3.478.486,4.018,2,.377,1.057-.328,2.186-1.078,3a5.055,5.055,0,0,0-1.73,2.776c-.136,1.7,1.617,2.885,3.211,3.243a10.012,10.012,0,0,0,10.323-4.308q.064-.1.139-.2a14.841,14.841,0,0,0,2.985-11.348c-.125-.784,0-1.367.541-1.553,2.336-.8,8.881.882,10.862,2.4s3.567,3.536,5.475,5.157,4.339,2.87,6.762,2.429a7.5,7.5,0,0,0,4.7-3.461,20.838,20.838,0,0,0,2.321-5.648A10.926,10.926,0,0,1,774.981,286.681Z" transform="translate(-540.012 -208.877)" fill="#2f2e41"/></svg>