<svg xmlns="http://www.w3.org/2000/svg" width="339.794" height="188.454" viewBox="0 0 339.794 188.454"><path d="M393.1,327.6q-.568,1.224-1.132,2.415-.881,1.85-1.739,3.629c-.255.525-.509,1.041-.757,1.557-2.806,5.734-5.427,10.8-7.652,14.975A23.89,23.89,0,0,1,361,362.816l-49.487.538h-.522l-4.242.046-3.629.039L292,363.566h-.45l-5.665.062h-.173l-34.917.379-31.167.326-3.625.039-22.516.245h-.036l-14.6.157h-.157l-46.175.5-13.813.15a28.722,28.722,0,0,1-3.521-.176h0c-.4-.046-.8-.1-1.191-.16A28.514,28.514,0,0,1,97.253,356.1a65.367,65.367,0,0,1-13.17-22.454q-.63-1.792-1.175-3.629c-10.054-34,2.2-77.845,24.262-107.178q1.387-1.84,2.819-3.59l.023-.026a90.409,90.409,0,0,1,22.494-20.232c14.358-8.781,30.267-11.255,45.914-3.883A102.706,102.706,0,0,0,216,205.077c1.211.078,2.421.137,3.625.173,27.486.865,53.246-9.039,83.5-15.432,1.2-.255,2.412-.506,3.629-.744,21.58-4.294,45.519-6.559,73.988-1.8a61.708,61.708,0,0,1,8.732,2.088q1.883.607,3.629,1.305c13.588,5.528,21,15.742,24.148,28.54q.447,1.782.773,3.625C423.606,253.621,407.254,297.29,393.1,327.6Z" transform="translate(-79.351 -176.99)" fill="#f2f2f2"/><path d="M248.873,339.2a31.072,31.072,0,0,1-.61,3.629h30.577V339.2Zm-25.535,20.5,3.625-.029v-8.964c-1.243-.055-2.454-.111-3.625-.17ZM147.33,339.2v3.629h64.775V339.2ZM424.6,228.4H400.454v-28.54q-1.746-.711-3.629-1.305v29.859H314.089V198.25c-1.217.238-2.425.489-3.629.744V228.4h-83.5V214.426c-1.2-.036-2.415-.095-3.625-.173V228.4h-83.5V208.167A90.41,90.41,0,0,0,117.348,228.4h-.023v.026q-1.436,1.762-2.819,3.59h2.819V339.2H90.24q.542,1.837,1.175,3.629h25.907v30.55a28.387,28.387,0,0,0,3.981.91c.395.062.793.114,1.191.16h0a28.716,28.716,0,0,0,3.521.176l13.813-.15V342.825h83.51v30.743l3.625-.039v-30.7h83.5v29.8l3.629-.039V342.831h82.72v1.557c.248-.516.5-1.031.757-1.557q.858-1.775,1.739-3.629.565-1.191,1.132-2.415V232.038h24.938Q425.046,230.181,424.6,228.4ZM139.841,339.2V232.025h83.5V339.2Zm87.129,0V232.025h83.49V339.2Zm169.845,0H314.089V232.025h82.72Z" transform="translate(-86.687 -186.176)" opacity="0.1"/><path d="M501.606,422.271A61,61,0,0,0,482.891,401.3a4.142,4.142,0,0,0-1.87-.7c.917-6.03.724-12.694-2.679-17.719-8.077-11.924-49.226.382-49.226.382-28.844-10-53.844,2.692-53.844,2.692s-31.921-5-46.534-1.152c-6.892,1.814-8.566,8.843-8.409,15.768h-.023a4.063,4.063,0,0,0-3.182,1.527c-3.887,4.856-15.628,19.811-15.308,22.7.385,3.462,13.076,48.456,12.5,70.186l177.289-1.958s2.937-43.727,10.282-67.663a4.059,4.059,0,0,0-.284-3.09Z" transform="translate(-229.216 -307.052)" fill="#3f3d56"/><path d="M267.88,331.246l7.306-14.616,6.151,28.459.072,13.21Z" transform="translate(-180.468 -213.306)" opacity="0.1"/><path d="M749.121,331.246l-7.306-14.616-8.475,26.984,1.632,15.337Z" transform="translate(-494.037 -213.306)" opacity="0.1"/><path d="M307.48,399.89l138.982-.76L448,414.513l-139.987-.385Z" transform="translate(-207.145 -268.884)" fill="#3f3d56"/><path d="M307.48,399.89l138.982-.76L448,414.513l-139.987-.385Z" transform="translate(-207.145 -268.884)" opacity="0.1"/><rect width="141.298" height="16.538" rx="8.269" transform="translate(100.289 144.131)" fill="#fff" opacity="0.1"/><path d="M710.981,432.555s-.47-.653-1.025-.3a35.357,35.357,0,0,0-2.728,3.332c-.6.78-1.2,1.566-1.671,2.193-.584.77-.979,1.305-.979,1.305l-.235.441-1.426,2.666-1.341,2.506-.326,1.181,4.529,1.54,5.156-1.406-.222-.956-.039-.163.042-2.2.118-6.2.055-2.79v-.326Z" transform="translate(-498.309 -343.749)" fill="#ffe09c"/><path d="M699.29,474.948s4.895,1.746,7.4.832a13.4,13.4,0,0,0,3.025-1.361s.91-.476-.326-2.03c0,0-3.169,1.942-6.168,1.178l-3-.767Z" transform="translate(-496.989 -370.857)" fill="#e7c4c3"/><ellipse cx="1.602" cy="1.358" rx="1.602" ry="1.358" transform="translate(205.006 100.35) rotate(-30.37)" fill="#ff7f8e"/><ellipse cx="1.602" cy="1.358" rx="1.602" ry="1.358" transform="translate(208.261 96.448) rotate(-30.37)" fill="#ff7f8e"/><path d="M725.326,464.193a1.677,1.677,0,0,0-1.527.121,1.376,1.376,0,1,0,1.371,2.343c.052-.033.1-.065.153-.1l-.039-.163Z" transform="translate(-512.922 -365.248)" fill="#ff7f8e"/><path d="M708.611,455.331a1.25,1.25,0,0,0-.835-.581l-1.426,2.666a1.667,1.667,0,0,0,1.566-.1A1.5,1.5,0,0,0,708.611,455.331Z" transform="translate(-501.745 -358.974)" fill="#ff7f8e"/><path d="M717.254,443.293a1.305,1.305,0,0,0-1.113-.613c-.6.78-1.2,1.566-1.671,2.193l.02.039a1.624,1.624,0,0,0,2.764-1.619Z" transform="translate(-507.215 -350.842)" fill="#ff7f8e"/><path d="M728.022,436.9a1.834,1.834,0,0,0-.48.2,1.5,1.5,0,0,0-.7,1.981,1.305,1.305,0,0,0,1.119.613Z" transform="translate(-515.444 -346.949)" fill="#ff7f8e"/><path d="M706.951,467.209l-.261-.441a2.809,2.809,0,0,0,1.057-.587c.02-.02.036-.042.052-.062.326-.411.258.444.258.444S707.255,467.245,706.951,467.209Z" transform="translate(-501.974 -366.558)" fill="#94cc79"/><path d="M718.751,465.115l-.261-.444a2.832,2.832,0,0,0,1.057-.587c0-.02.036-.039.052-.062.326-.408.258.444.258.444S719.055,465.151,718.751,465.115Z" transform="translate(-509.923 -365.145)" fill="#94cc79"/><path d="M717.671,459.518l-.261-.444a2.832,2.832,0,0,0,1.057-.584c.016-.023.036-.042.052-.062.326-.411.258.441.258.441S717.975,459.548,717.671,459.518Z" transform="translate(-509.196 -361.376)" fill="#94cc79"/><path d="M719.1,449.412l-.261-.444a2.833,2.833,0,0,0,1.057-.587c0-.02.036-.039.052-.062.326-.411.258.444.258.444S719.4,449.445,719.1,449.412Z" transform="translate(-510.159 -354.566)" fill="#94cc79"/><path d="M725.878,437.195l-.258-.444a2.806,2.806,0,0,0,1.054-.587.474.474,0,0,0,.052-.062c.326-.408.261.444.261.444S726.181,437.227,725.878,437.195Z" transform="translate(-514.727 -346.336)" fill="#94cc79"/><path d="M725.111,449.668l-.261-.444a2.807,2.807,0,0,0,1.057-.584c0-.023.036-.042.052-.062.326-.411.258.441.258.441S725.415,449.7,725.111,449.668Z" transform="translate(-514.208 -354.741)" fill="#94cc79"/><path d="M696.548,446.448s-.627,1.632.8,1.371a5.659,5.659,0,0,0,1.263-2.581s3.09-6.771,4-7.391c0,0,4.027-5.505,4.461-5.587,0,0,.14-.535-1.266.6s-4.487,5.492-4.487,5.492l-2.937,4.787-.692,1.909Z" transform="translate(-495.049 -343.737)" fill="#e7c4c3"/><path d="M696.548,446.448s-.627,1.632.8,1.371a5.659,5.659,0,0,0,1.263-2.581s3.09-6.771,4-7.391c0,0,4.027-5.505,4.461-5.587,0,0,.14-.535-1.266.6s-4.487,5.492-4.487,5.492l-2.937,4.787-.692,1.909Z" transform="translate(-495.049 -343.737)" fill="#fff" opacity="0.2"/><path d="M548.08,577.221a39.249,39.249,0,0,0,1.984,5.175,48.046,48.046,0,0,0,6.615-1.886,18.583,18.583,0,0,0-1.374-1.87,6.564,6.564,0,0,0-1.87-1.436,5.177,5.177,0,0,0-2.284-.033Q549.623,577.251,548.08,577.221Z" transform="translate(-395.122 -441.366)" fill="#fbbebe"/><path d="M518.32,574.105a4.154,4.154,0,0,1-2.265-2.575,8.3,8.3,0,0,0-1.694-3.081,1.008,1.008,0,0,0-.764.574,9.575,9.575,0,0,1-.454.894c-.359.522-.979.777-1.452,1.22s-.737,1.119-1.23,1.566a4.935,4.935,0,0,1-2.307.888,14.737,14.737,0,0,0-3.616,1.338,6.064,6.064,0,0,1-1.338.6,4.94,4.94,0,0,1-1.566.052l-3.59-.255a2.868,2.868,0,0,0-.959.039,1.749,1.749,0,0,0-1.142,1.8,2.807,2.807,0,0,0,1.136,1.935,7.658,7.658,0,0,0,2.049,1.034,60.362,60.362,0,0,0,9.64,2.754v.711a16.6,16.6,0,0,0,7.339,1.71,1.163,1.163,0,0,0,.548-.095,1.188,1.188,0,0,0,.463-.7,28.476,28.476,0,0,0,1.5-7.832,5.951,5.951,0,0,0-.153-2.013c-.2-.653.477-.375-.147-.63" transform="translate(-359.995 -435.571)" fill="#2f2e41"/><path d="M629.768,538.362c-10.661.653-21.211-2.483-31.869-2.816a15.662,15.662,0,0,0-3.965.255,19.315,19.315,0,0,0-3.916,1.521c-5.727,2.663-11.646,4.869-17.563,7.071l-6.794,2.532a10.456,10.456,0,0,1-4.21.93c-.653-.039-1.446-.137-1.808.4-1.106,1.632-.584,4.043.147,5.874.235.594.653,1.24,1.273,1.305a3.881,3.881,0,0,0,1.305-.326c1.237-.326,2.47.5,3.743.636,1.573.166,3.031-.728,4.516-1.276,2.46-.91,5.153-.881,7.74-1.305a34.637,34.637,0,0,0,12.12-5.032A14.147,14.147,0,0,1,595.011,546a12.284,12.284,0,0,1,5.688.653,130.922,130.922,0,0,1,13.033,4.438,60.122,60.122,0,0,0,6.814,2.487,24.647,24.647,0,0,0,15.265-.891c1.7-.675,3.56-1.867,3.658-3.707.055-1.051-.76-1.958-1.305-2.872-.346-.578-.7-1.152-1.077-1.707C635.237,541.707,633.005,538.169,629.768,538.362Z" transform="translate(-402.483 -413.383)" fill="#2f2e41"/><path d="M629.768,538.362c-10.661.653-21.211-2.483-31.869-2.816a15.662,15.662,0,0,0-3.965.255,19.315,19.315,0,0,0-3.916,1.521c-5.727,2.663-11.646,4.869-17.563,7.071l-6.794,2.532a10.456,10.456,0,0,1-4.21.93c-.653-.039-1.446-.137-1.808.4-1.106,1.632-.584,4.043.147,5.874.235.594.653,1.24,1.273,1.305a3.881,3.881,0,0,0,1.305-.326c1.237-.326,2.47.5,3.743.636,1.573.166,3.031-.728,4.516-1.276,2.46-.91,5.153-.881,7.74-1.305a34.637,34.637,0,0,0,12.12-5.032A14.147,14.147,0,0,1,595.011,546a12.284,12.284,0,0,1,5.688.653,130.922,130.922,0,0,1,13.033,4.438,60.122,60.122,0,0,0,6.814,2.487,24.647,24.647,0,0,0,15.265-.891c1.7-.675,3.56-1.867,3.658-3.707.055-1.051-.76-1.958-1.305-2.872-.346-.578-.7-1.152-1.077-1.707C635.237,541.707,633.005,538.169,629.768,538.362Z" transform="translate(-402.483 -413.383)" opacity="0.1"/><path d="M610.8,570.012q2.5.852,5.052,1.57c.95-1.56,2.728-2.646,3.133-4.428a.3.3,0,0,0-.193-.411,9.409,9.409,0,0,0-3.952-1.158c-1.1-.069-1.6,1.074-2.095,1.88C612.546,567.787,611.247,570.166,610.8,570.012Z" transform="translate(-437.375 -433.638)" fill="#fbbebe"/><path d="M583.959,570.4a3.651,3.651,0,0,1-2.454-1.612c-.235-.411-.486-.979-.956-.937s-.653.551-.738.979a27.8,27.8,0,0,1-1.374,4.742,8.9,8.9,0,0,1-2.937,3.877c-.62.427-1.305.75-1.912,1.2a12.137,12.137,0,0,1-1.632,1.22,8.7,8.7,0,0,1-1.24.463,8.665,8.665,0,0,0-1.775.865,3.53,3.53,0,0,0-1.207,1.155,1.687,1.687,0,0,0-.1,1.632,1.749,1.749,0,0,0,1.185.809,5.048,5.048,0,0,0,1.472.039c1.942-.144,3.883-.326,5.825-.49a17.023,17.023,0,0,0,2.441-.326c.427-.1.842-.238,1.266-.349a10.654,10.654,0,0,1,2.219-.326,1.959,1.959,0,0,1,.653.059c.45.147.767.594,1.234.685a1.959,1.959,0,0,0,.878-.117,20.487,20.487,0,0,1,4.314-.45c.653-.033,1.384-.153,1.677-.724.365-.711-.242-1.508-.48-2.284a6.9,6.9,0,0,1-.2-1.491,9.076,9.076,0,0,0-1.07-3.541c-.493-.907-1.168-1.912-.822-2.888a2.628,2.628,0,0,0,.326-.979C588.436,570.052,584.843,570.59,583.959,570.4Z" transform="translate(-408.184 -435.169)" fill="#2f2e41"/><path d="M708.261,472.467a8.344,8.344,0,0,1-4.242-4.219c-.18-.4-.326-.826-.5-1.234a9.417,9.417,0,0,0-2.539-3.528,1.227,1.227,0,0,0-.943-.4,1.012,1.012,0,0,0-.692.744,2.958,2.958,0,0,0-.072,1.139,20.378,20.378,0,0,0,.463,2.663l.516,2.353a4.324,4.324,0,0,0,.326,1.051,3.662,3.662,0,0,0,.865,1.038c.473.437.953.858,1.439,1.269a4.037,4.037,0,0,0,2.5,1.109,13.707,13.707,0,0,1,6.057,2.34c-.023,0,0-1.579-.039-1.759a2.322,2.322,0,0,0-.454-1.263A8.209,8.209,0,0,0,708.261,472.467Z" transform="translate(-496.963 -364.591)" fill="#fbbebe"/><path d="M708.261,472.467a8.344,8.344,0,0,1-4.242-4.219c-.18-.4-.326-.826-.5-1.234a9.417,9.417,0,0,0-2.539-3.528,1.227,1.227,0,0,0-.943-.4,1.012,1.012,0,0,0-.692.744,2.958,2.958,0,0,0-.072,1.139,20.378,20.378,0,0,0,.463,2.663l.516,2.353a4.324,4.324,0,0,0,.326,1.051,3.662,3.662,0,0,0,.865,1.038c.473.437.953.858,1.439,1.269a4.037,4.037,0,0,0,2.5,1.109,13.707,13.707,0,0,1,6.057,2.34c-.023,0,0-1.579-.039-1.759a2.322,2.322,0,0,0-.454-1.263A8.209,8.209,0,0,0,708.261,472.467Z" transform="translate(-496.963 -364.591)" opacity="0.1"/><ellipse cx="2.594" cy="2.607" rx="2.594" ry="2.607" transform="translate(230.414 84.645)" fill="#2f2e41"/><path d="M751.465,423.688a2.827,2.827,0,0,0-2.049.3,2.774,2.774,0,0,0-.7.953,13.783,13.783,0,0,0-1.348,3.175c-.232.953-.271,1.958-.558,2.885-.532,1.736-1.893,3.2-2.049,5.012-.068.809.069,1.759-.525,2.314a3.31,3.31,0,0,1-.463.326,3.525,3.525,0,0,0-1.021,1.051,3.4,3.4,0,0,1-.724,1c-.529.392-1.4.349-1.664.956s.411,1.305.255,1.958c-.127.535-.724.78-1.136,1.145a3.894,3.894,0,0,0-.979,1.84,6.115,6.115,0,0,1-4.96-1.237,15.712,15.712,0,0,1,.77,5.675,2.338,2.338,0,0,1-.457,1.759,30.865,30.865,0,0,1,6.092,1.061,4.224,4.224,0,0,0,2.656,0,4.278,4.278,0,0,0,1.217-.979,7.8,7.8,0,0,0,2.513-3.867,21.8,21.8,0,0,0,.046-2.611,14.914,14.914,0,0,1,.653-3.185,37.718,37.718,0,0,0,1.165-6.553c.117-1.364,1.305-2.464,1.919-3.687,1.175-2.3,2.372-4.706,2.46-7.293C752.617,424.83,752.323,423.783,751.465,423.688Z" transform="translate(-520.062 -338.012)" fill="#2f2e41"/><path d="M751.465,423.688a2.827,2.827,0,0,0-2.049.3,2.774,2.774,0,0,0-.7.953,13.783,13.783,0,0,0-1.348,3.175c-.232.953-.271,1.958-.558,2.885-.532,1.736-1.893,3.2-2.049,5.012-.068.809.069,1.759-.525,2.314a3.31,3.31,0,0,1-.463.326,3.525,3.525,0,0,0-1.021,1.051,3.4,3.4,0,0,1-.724,1c-.529.392-1.4.349-1.664.956s.411,1.305.255,1.958c-.127.535-.724.78-1.136,1.145a3.894,3.894,0,0,0-.979,1.84,6.115,6.115,0,0,1-4.96-1.237,15.712,15.712,0,0,1,.77,5.675,2.338,2.338,0,0,1-.457,1.759,30.865,30.865,0,0,1,6.092,1.061,4.224,4.224,0,0,0,2.656,0,4.278,4.278,0,0,0,1.217-.979,7.8,7.8,0,0,0,2.513-3.867,21.8,21.8,0,0,0,.046-2.611,14.914,14.914,0,0,1,.653-3.185,37.718,37.718,0,0,0,1.165-6.553c.117-1.364,1.305-2.464,1.919-3.687,1.175-2.3,2.372-4.706,2.46-7.293C752.617,424.83,752.323,423.783,751.465,423.688Z" transform="translate(-520.062 -338.012)" opacity="0.1"/><path d="M671.043,505.836c-2.219-1.057-3.844-3.025-5.639-4.712-3.426-3.218-7.62-5.5-11.222-8.514-2.389-2-4.523-4.327-7.146-6a17.8,17.8,0,0,0-7.646-2.676,2.1,2.1,0,0,0-.937.046,2.225,2.225,0,0,0-.871.689,27.388,27.388,0,0,0-3.087,4.242c-4.568,7.75-11.056,14.277-16.43,21.479a.979.979,0,0,0-.065,1.305l1.093,2.141c.61,1.2,1.592,2.611,2.911,2.359a3.2,3.2,0,0,0,1.527-.979l4.895-4.689,5.146-4.921c3.015-2.881,6.079-5.831,8.047-9.516,1.534,2.663,4.262,4.405,6.132,6.853.711.927,1.305,1.958,1.925,2.937,1.018,1.573,2.177,3.051,3.332,4.526l5.9,7.535a11.475,11.475,0,0,0,2.731,2.771,10.508,10.508,0,0,0,4.745,1.266,63.2,63.2,0,0,0,6.67.242,11.57,11.57,0,0,0,4.97-.894,4.507,4.507,0,0,0,2.7-4.007,5.942,5.942,0,0,0-.852-2.5C677.775,510.936,675.018,507.722,671.043,505.836Z" transform="translate(-442.078 -378.612)" fill="#2f2e41"/><ellipse cx="1.994" cy="2.007" rx="1.994" ry="2.007" transform="translate(232.61 87.05)" fill="#e8e8f0"/><path d="M791.291,416.592a3.8,3.8,0,0,1,.219,2.878,11.209,11.209,0,0,1-1.282,2.656,13.242,13.242,0,0,1-1.667,2.379c3.077.15,6.063-1.057,8.778-2.523,2.186-1.175,4.366-2.63,5.548-4.83a2.546,2.546,0,0,1-2.04-.375,7.582,7.582,0,0,1-1.56-1.455l-1.547-1.739a6.88,6.88,0,0,1-.95-1.247,3.5,3.5,0,0,1-.408-2.017,11.451,11.451,0,0,1-2.046,1.7c-1.1.718-2.32,1.24-3.426,1.958-.392.251-1.266.653-1.041,1.171S790.988,416.044,791.291,416.592Z" transform="translate(-557.128 -329.042)" fill="#fbbebe"/><path d="M791.291,416.592a3.8,3.8,0,0,1,.219,2.878,11.209,11.209,0,0,1-1.282,2.656,13.242,13.242,0,0,1-1.667,2.379c3.077.15,6.063-1.057,8.778-2.523,2.186-1.175,4.366-2.63,5.548-4.83a2.546,2.546,0,0,1-2.04-.375,7.582,7.582,0,0,1-1.56-1.455l-1.547-1.739a6.88,6.88,0,0,1-.95-1.247,3.5,3.5,0,0,1-.408-2.017,11.451,11.451,0,0,1-2.046,1.7c-1.1.718-2.32,1.24-3.426,1.958-.392.251-1.266.653-1.041,1.171S790.988,416.044,791.291,416.592Z" transform="translate(-557.128 -329.042)" opacity="0.1"/><path d="M772.019,429.728a2.6,2.6,0,0,0,0,3.009c.088.111.411.8.552.8a.545.545,0,0,0,.352-.179,23.512,23.512,0,0,0,1.958-2.327,4.3,4.3,0,0,1,2.483-1.632,5.434,5.434,0,0,1,3.423,1.067,3.279,3.279,0,0,1,1.168.956,3.143,3.143,0,0,1,.385,1.305,61.691,61.691,0,0,1,.346,8.292A30.525,30.525,0,0,1,782.3,447c-.2,1.018-.489,2.013-.63,3.038a20.511,20.511,0,0,0-.121,2.725v3.811a9.712,9.712,0,0,0,.147,2.089,24.925,24.925,0,0,0,.839,2.418,15.926,15.926,0,0,1,.558,2.859l.522,3.945c.163,1.243.284,2.611-.467,3.59-.326.45-.786.813-1.129,1.263-1.305,1.677-.878,4.076-1.416,6.128a7.672,7.672,0,0,1-2.5,3.834,4.159,4.159,0,0,1-3.3,1.178c-1.6-.3-2.565-1.958-3-3.547s-.594-3.3-1.54-4.627a11.88,11.88,0,0,0-3.054-2.552,5.2,5.2,0,0,1-2.376-3.1c-.1-.574-.039-1.165-.1-1.746a4.128,4.128,0,0,0-2.552-3.351c-.819-.326-1.831-.434-2.284-1.185a5.559,5.559,0,0,0,2.4-3.224,16.559,16.559,0,0,0,.584-4.069l.274-4.585a15.088,15.088,0,0,1,1.08-5.92c.4-.826.9-1.6,1.325-2.408a27.16,27.16,0,0,0,1.42-3.534c.653-1.88,1.305-3.759,1.893-5.662a11.285,11.285,0,0,1,1.038-2.637C770.368,430.942,771.093,429.9,772.019,429.728Z" transform="translate(-537.813 -341.875)" fill="#f39719"/><path d="M765.586,457.938l1.214.042.258-1.831a3.823,3.823,0,0,1,.255-1.07,6.729,6.729,0,0,1,.7-1.021c1.194-1.687,1.106-3.916,1.4-5.975a29.793,29.793,0,0,1,2.666-7.809l2.363-5.251a5.744,5.744,0,0,0,.653-2.9c.023-.813.261-3.763.284-4.569,0-.3-.653-.134-.8-.4-.294-.584-.7,1-1.25,1.344a3.077,3.077,0,0,0-1.09,1.586c-.509,1.322-.819,2.712-1.305,4.046a8.571,8.571,0,0,1-2.2,3.59c-.483.424-1.038.757-1.495,1.211-1.465,1.449-1.609,3.736-1.661,5.8C765.554,445.945,765.306,457.938,765.586,457.938Z" transform="translate(-541.562 -340.298)" fill="#2f2e41"/><path d="M796.539,423.473a4.162,4.162,0,0,0-2.154,2.97,14.773,14.773,0,0,1-1.1,3.639c-1.482,2.575-5.254,3.325-6.295,6.109a11.907,11.907,0,0,0-.421,2.878c-.189,1.994-.845,3.916-1.038,5.913a26.029,26.029,0,0,0,.108,4.647l1.305,15.726a20.734,20.734,0,0,1-.395,6.915,6.65,6.65,0,0,0,3.962-.653c1.237-.565,2.369-1.341,3.56-2,2.049-1.132,4.311-1.932,6.106-3.439a3.522,3.522,0,0,0,.822-.91,7.6,7.6,0,0,0,.561-2.072,11.3,11.3,0,0,1,.591-1.632,48.558,48.558,0,0,0,1.716-4.849,26.371,26.371,0,0,0,.786-3.328c.144-.894.222-1.8.3-2.705a16.237,16.237,0,0,1,.835-4.157,33.365,33.365,0,0,0,1.929-9.959,5.11,5.11,0,0,0-.1-1.465,8.113,8.113,0,0,0-.8-1.664c-.548-1.031-.878-2.167-1.393-3.218a15.794,15.794,0,0,0-5.394-5.668C798.983,423.816,797.743,423,796.539,423.473Z" transform="translate(-555.05 -337.81)" fill="#2f2e41"/><path d="M705.306,491.486a9.482,9.482,0,0,1-2.509-1.909c-.326-.385-.6-.819-.937-1.2a6.148,6.148,0,0,0-3.159-1.8,15.452,15.452,0,0,0-3.658-.356,6.712,6.712,0,0,0-2.434.294A2.444,2.444,0,0,0,691,488.248a2.859,2.859,0,0,0,1.227,2.558A5.919,5.919,0,0,0,694.678,492a20.131,20.131,0,0,0,2.216.258c4.366.457,8.263,2.832,12.074,5q5.042,2.855,10.276,5.332a20.818,20.818,0,0,0,.173-3.156c-.02-.786-.059-1.987-.8-2.451a16.434,16.434,0,0,0-3.263-.979,52.569,52.569,0,0,1-6.575-2.66Q707.01,492.474,705.306,491.486Z" transform="translate(-491.381 -380.167)" fill="#fbbebe"/><ellipse cx="7.822" cy="7.78" rx="7.822" ry="7.78" transform="matrix(0.254, -0.967, 0.967, 0.254, 223.698, 84.601)" fill="#fbbebe"/><path d="M786.6,448.886a12.534,12.534,0,0,0-1.511,2.813c-.959,1.978-2.467,3.674-3.221,5.743-.8,2.18-.77,4.771-2.33,6.484a2.242,2.242,0,0,0-.676.979,5.2,5.2,0,0,1-.082.715c-.222.62-1.24.653-1.429,1.286-.056.186-.026.388-.095.571-.157.408-.7.47-1.057.718-.757.512-.6,1.7-1.142,2.441a2.046,2.046,0,0,1-1.958.679,6.957,6.957,0,0,1-2.017-.754,1.857,1.857,0,0,0-.724-.225,1.524,1.524,0,0,0-.839.284,5.181,5.181,0,0,0-2.1,4.435,14.536,14.536,0,0,0,1.2,4.954,2.15,2.15,0,0,0,.4.737,1.736,1.736,0,0,0,1.938.144,8.841,8.841,0,0,1,1.886-.845c1.2-.219,2.382.61,3.59.542a5.045,5.045,0,0,0,2.428-1.074,13.331,13.331,0,0,0,3.263-2.767c.535-.7.927-1.491,1.393-2.239a25.92,25.92,0,0,1,1.958-2.611l4.484-5.489a11.85,11.85,0,0,0,1.207-1.668,11.7,11.7,0,0,0,.94-2.506,19.268,19.268,0,0,0,.93-4.467,17.621,17.621,0,0,0-.326-3.743,12.983,12.983,0,0,0-.979-3.563C790.8,448.423,788.432,446.749,786.6,448.886Z" transform="translate(-542.886 -354.353)" fill="#2f2e41"/><path d="M796.7,377.193a8.756,8.756,0,0,0-1.671-7.8,10.4,10.4,0,0,0-5.972-12.051,10.1,10.1,0,0,0-19.38-4.546c-2.937-1.524-6.044-1.361-7.068.431-1.07,1.873.538,4.82,3.59,6.579a9.571,9.571,0,0,0,3.11,1.152,10.116,10.116,0,0,0,5.629,5.959,10.371,10.371,0,0,0,5.352,9.512,8.668,8.668,0,0,0,1.446,3.73,6.525,6.525,0,0,0-.228.715,6.585,6.585,0,1,0,12.73,3.348,6.971,6.971,0,0,0,.131-2.973A8.843,8.843,0,0,0,796.7,377.193Z" transform="translate(-539.42 -286.152)" fill="#3f3d56"/><path d="M764.626,354.174c1.025-1.792,4.128-1.958,7.068-.431a10.273,10.273,0,0,1,11.875-5.818c.219.055.434.124.653.2a9.858,9.858,0,0,0-2.663-1.142,10.28,10.28,0,0,0-11.875,5.818c-2.937-1.524-6.044-1.361-7.068.431-1.07,1.873.538,4.82,3.59,6.579a10.212,10.212,0,0,0,1.8.816C765.09,358.84,763.582,356,764.626,354.174Z" transform="translate(-539.427 -286.152)" opacity="0.1"/><path d="M798.351,412.181a6.515,6.515,0,0,1,.229-.715,8.68,8.68,0,0,1-1.446-3.733,10.364,10.364,0,0,1-5.352-9.509,10.116,10.116,0,0,1-5.629-5.959,9,9,0,0,1-1.863-.545,10.08,10.08,0,0,0,5.472,5.547,10.371,10.371,0,0,0,5.352,9.512,8.667,8.667,0,0,0,1.446,3.73,6.54,6.54,0,0,0-.228.715,6.7,6.7,0,0,0,4.6,8.253A6.8,6.8,0,0,1,798.351,412.181Z" transform="translate(-554.251 -316.512)" opacity="0.1"/><ellipse cx="1.198" cy="1.602" rx="1.198" ry="1.602" transform="translate(233.677 79.877) rotate(-37.22)" fill="#fbbebe"/><ellipse cx="5.316" cy="5.316" rx="5.316" ry="5.316" transform="translate(135.588 2.206)" fill="#3f3d56"/><ellipse cx="14.91" cy="19.318" rx="14.91" ry="19.318" transform="translate(137.529 0)" fill="#3f3d56"/><path d="M515.7,227.911c-7.47,0-13.657-7.117-14.743-16.4a25.154,25.154,0,0,0-.17,2.917c0,10.668,6.677,19.318,14.913,19.318s14.91-8.651,14.91-19.318a25.161,25.161,0,0,0-.17-2.917C529.36,220.807,523.173,227.911,515.7,227.911Z" transform="translate(-363.264 -195.109)" opacity="0.1"/><path d="M597.272,382.792c-.326,1.305-1.7,2.369-3.227,3.1-3.218,1.55-7.179,2.01-11.027,2.167a18.5,18.5,0,0,1-2.937-.055,8.44,8.44,0,0,1-5.045-2.32.93.93,0,0,1-.326-.529.94.94,0,0,1,.326-.653c2.053-2.239,5.472-3.616,8.905-4.595,2.611-.754,7.16-2.705,10.008-2.441C596.717,377.708,597.677,381.128,597.272,382.792Z" transform="translate(-413.062 -306.895)" fill="#3f3d56"/><path d="M597.272,382.792c-.326,1.305-1.7,2.369-3.227,3.1-3.218,1.55-7.179,2.01-11.027,2.167a18.5,18.5,0,0,1-2.937-.055,8.44,8.44,0,0,1-5.045-2.32.93.93,0,0,1-.326-.529.94.94,0,0,1,.326-.653c2.053-2.239,5.472-3.616,8.905-4.595,2.611-.754,7.16-2.705,10.008-2.441C596.717,377.708,597.677,381.128,597.272,382.792Z" transform="translate(-413.062 -306.895)" opacity="0.1"/><path d="M516.758,319.349a8.139,8.139,0,0,0-.493,6.2A10.844,10.844,0,0,0,519.9,330.7c4.167,3.345,9.884,3.8,15.213,3.763a117.686,117.686,0,0,0,13.973-.959,16.756,16.756,0,0,0,4.533-1.051,6.976,6.976,0,0,0,3.887-3.916,4.756,4.756,0,0,0-1.305-5.182c-1.305-1.051-3.077-1.194-4.738-1.305l-9.512-.571a15.919,15.919,0,0,1,3.335-2.18,15.182,15.182,0,0,0,3.632-3.847,49.921,49.921,0,0,1,5.547-5.694,8.285,8.285,0,0,0,2.754,4.461c1.322,1.227,2.845,2.212,4.223,3.377,3.329,2.826,5.724,6.664,9.225,9.274a18.079,18.079,0,0,0,6.615-3.3l-1.361-2.464a1.632,1.632,0,0,0-.512-.653c-.388-.235-.884-.114-1.331-.179-1.194-.18-1.716-1.56-2.186-2.673-1.286-3.061-3.753-5.433-5.874-8a40.078,40.078,0,0,1-4.1-6.06,20.686,20.686,0,0,0-2.317-3.71,5.2,5.2,0,0,0-3.766-1.958,7.276,7.276,0,0,0-3.59,1.305,95.123,95.123,0,0,0-9.737,6.634,22.742,22.742,0,0,1-5.146,3.368c-.8.326-1.632.548-2.418.943a16.3,16.3,0,0,0-3.475,2.911A23.09,23.09,0,0,1,516.758,319.349Z" transform="translate(-373.423 -253.288)" fill="#605d82"/><path d="M554.314,247.616a9.715,9.715,0,0,1-.715,3.312,4.128,4.128,0,0,1-2.376,2.284,5.094,5.094,0,0,1-2.317.075,4.477,4.477,0,0,1-1.889-.653,4.031,4.031,0,0,1-1.5-2.777c-.163-1.07-.088-2.164-.193-3.24a17.786,17.786,0,0,0-.5-2.578c-.069-.281-.14-.561-.212-.842s-.134-.561-.2-.842-.111-.525-.157-.793-.072-.45-.095-.675a7.63,7.63,0,0,0-.326-1.984,5.956,5.956,0,0,0-.7-1.175,4.393,4.393,0,0,1-.326-.512,2.428,2.428,0,0,1-.4-1.544,1.3,1.3,0,0,1,.062-.248.755.755,0,0,1,.036-.091.744.744,0,0,0,.506-.473,1.414,1.414,0,0,0-.062-.734,4.569,4.569,0,0,0-.395-.943c-.108-.2-.476-.551-.48-.777,0-.454.881-.819,1.24-1a6.9,6.9,0,0,1,3.544-.718,2.6,2.6,0,0,1,2.066.953,6.5,6.5,0,0,1,.506,2.046.568.568,0,0,0,.121.274.555.555,0,0,0,.307.14,1.827,1.827,0,0,0,.581.023h0a.83.83,0,0,0,.153-.023,2.055,2.055,0,0,0,.835-.359c.163-.046.326-.078.486-.108h.02c.653,2.049.734,4.242,1.266,6.337a15.387,15.387,0,0,1,.7,3.133v.14c0,.346-.02.692,0,1.034a3.056,3.056,0,0,0,.052.457,6.953,6.953,0,0,0,.215.718h0c.023.075.046.15.065.228a1.525,1.525,0,0,1,.039.166h0A6.16,6.16,0,0,1,554.314,247.616Z" transform="translate(-391.087 -208.02)" fill="#fbbebe"/><ellipse cx="7.649" cy="7.649" rx="7.649" ry="7.649" transform="translate(146.48 10.893)" fill="#fbbebe"/><path d="M608.887,274.281a12.552,12.552,0,0,0-2.157-5.805l.6,3.541a1.328,1.328,0,0,1-1.387-.427,4.243,4.243,0,0,1-.728-1.351,27.738,27.738,0,0,0-3.384-6.07c-4.869-.408-9.685-2.425-13.967-4.781s-8.292-5.172-12.521-7.623a18.363,18.363,0,0,0-2.284-1.168c-1.322-.529-2.806-.8-4.059-1.426l-.251-.134a5.049,5.049,0,0,1-.8-.535,4.365,4.365,0,0,1-.382-.356,8.4,8.4,0,0,1-1.468-2.451c-.672-1.488-.914-3.286-1.583-4.774a4.728,4.728,0,0,1,1.028-.728h0l.163-.082a5,5,0,0,1,.826-.3c.163-.046.326-.078.486-.108h.02a4.8,4.8,0,0,1,2.265.179,10.573,10.573,0,0,1,2.859,1.762,46.644,46.644,0,0,1,4.183,3.315c.737.708,1.413,1.485,2.206,2.128a17.5,17.5,0,0,0,2.085,1.384l12.9,7.685c1.455.865,2.914,1.733,4.337,2.653,2.164,1.393,4.242,2.9,6.331,4.415l3.684,2.669a4.04,4.04,0,0,1,1.044.979,3.5,3.5,0,0,1,.46,1.413,12.929,12.929,0,0,1-.5,5.995Z" transform="translate(-406.191 -214.061)" fill="#fbbebe"/><path d="M535.29,259.517c-.519,2.314-2.855,3.714-4.079,5.747-1.521,2.522-.9,5.456-.326,8.347l-3.129,2.7c-.574.493-1.152.979-1.769,1.426a23.787,23.787,0,0,1-2.829,1.632l-2.767,1.423a13.269,13.269,0,0,1-2.712,1.149,10.454,10.454,0,0,1-5.547-.4,2.475,2.475,0,0,1-.607-.248,1,1,0,0,1-.287-.261,1.6,1.6,0,0,1-.183-1.048,49.22,49.22,0,0,1,1.661-8.938,26,26,0,0,1,3.8-9.372,27.544,27.544,0,0,1,3.263-4.741,7.616,7.616,0,0,0,1.514-1.958,10.5,10.5,0,0,0,.375-3.4,7.044,7.044,0,0,1,.672-2.477h0a7.1,7.1,0,0,1,.718-1.188c.127.294.251.587.379.878l.245.574c.108.245.212.493.326.737q.457,1.051.907,2.1a8.811,8.811,0,0,0,1.374,2.451,2.676,2.676,0,0,0,4.582-.352,8.665,8.665,0,0,0,.937-2.477,7.884,7.884,0,0,0,.1-3.227,39.837,39.837,0,0,0-1.827-6.092,6.145,6.145,0,0,1-.444-2.007,1.119,1.119,0,0,1,.023-.232v-.059a5,5,0,0,1,.826-.3c.163-.046.326-.078.486-.108q.842,4.569,1.687,9.118a1.256,1.256,0,0,0,.042.215c.078.437.16.871.251,1.305s.17.786.268,1.175h0c.033.131.069.264.1.395h0c.1.359.212.711.326,1.064C534.448,255.2,535.777,257.327,535.29,259.517Z" transform="translate(-370.164 -214.167)" fill="#f39719"/><path d="M680.5,384.814a2.657,2.657,0,0,0,.251,1.305c.476.875,1.632,1.074,2.611,1.155a77.542,77.542,0,0,0,17.416-.529,2.04,2.04,0,0,0,.888-.277c.819-.574.326-1.974-.581-2.425a11.754,11.754,0,0,0-2.937-.532,9.335,9.335,0,0,1-2.754-1.194q-2.986-1.716-5.874-3.59c-1.152-.741-2.513-1.53-3.808-1.09C682.19,378.826,680.473,381.025,680.5,384.814Z" transform="translate(-484.326 -306.94)" fill="#2f2e41"/><path d="M499.451,252.385h0l-.029.16-.049.268c-.16.822-.359,1.632-.584,2.457-.623,2.248-1.455,4.464-2.284,6.644l-6.66,17.556c-.561,1.475-1.119,2.937-1.756,4.392-.212.48-.431.979-.653,1.455a20.2,20.2,0,0,0-1.778,5.433,11.421,11.421,0,0,0-.082,3.723,3.778,3.778,0,0,0,2.157,2.872c.568.222,1.38.519,1.224,1.109-.082.326-.45.483-.783.535a3,3,0,0,1-2.457-.708c-.62-.548-1.1-1.406-1.925-1.5a3.344,3.344,0,0,0-1.632.519c-2.137.979-4.624.294-6.869-.4a2.408,2.408,0,0,1,1.994-1.687,16.315,16.315,0,0,1,2.77-.078,1.442,1.442,0,0,0,.842-.219,1.55,1.55,0,0,0,.467-.764,32.555,32.555,0,0,0,1.322-5.417c.3-1.925.424-3.877.848-5.776.326-1.482.842-2.917,1.279-4.373a91.823,91.823,0,0,0,2.085-9.1,32.085,32.085,0,0,0,.587-3.857c.075-1.077.039-2.16.144-3.231a25.05,25.05,0,0,1,.868-4.118c.4-1.472.793-2.937,1.191-4.405.587-2.173,1.217-4.428,2.705-6.115a5.747,5.747,0,0,1,4.131-1.974,3.952,3.952,0,0,1,.878.095l.144.036a3.459,3.459,0,0,1,.9.372c.46-.294.692-.189,1,.258a2.9,2.9,0,0,1,.362,1.566A21.707,21.707,0,0,1,499.451,252.385Z" transform="translate(-346.085 -218.202)" fill="#fbbebe"/><path d="M543.79,253.781l-.02.02-.1.1-1.041,1.041-.512-2.147-1.752-7.355a3.951,3.951,0,0,1,.878.095,1.313,1.313,0,0,1,.062-.248l.082.284.594,2.02,1.126,3.834.186.633h0Z" transform="translate(-389.921 -217.866)" fill="#f39719"/><rect width="16.597" height="10.374" rx="5.187" transform="translate(147.032 7.261)" fill="#3f3d56"/><ellipse cx="5.316" cy="5.316" rx="5.316" ry="5.316" transform="translate(159.282 2.206)" fill="#3f3d56"/><path d="M582.956,167.98h-.2a5.316,5.316,0,0,1,0,10.622h.2a5.316,5.316,0,0,0,0-10.632Z" transform="translate(-418.485 -165.777)" opacity="0.1"/><path d="M500.166,167.98h.2a5.316,5.316,0,0,0,0,10.622h-.2a5.316,5.316,0,0,1,0-10.632Z" transform="translate(-359.262 -165.777)" opacity="0.1"/><path d="M550.257,208.893H536.787a1.557,1.557,0,0,1-1.557-1.553v1.034a1.56,1.56,0,0,0,1.557,1.557H550.27a1.56,1.56,0,0,0,1.557-1.557V207.34a1.56,1.56,0,0,1-1.57,1.553Z" transform="translate(-386.465 -192.3)" opacity="0.1"/><path d="M700.773,343.354s.842.147.979-.535a38.023,38.023,0,0,0-.427-4.516c-.127-1.031-.264-2.059-.375-2.881-.134-1.008-.232-1.7-.232-1.7l-.153-.509-.907-3.048-.855-2.872-.63-1.129-4.533,2.206-2.819,4.872.875.551.153.1,1.609,1.684,4.51,4.732,2.03,2.131.238.248Z" transform="translate(-491.283 -272.346)" fill="#ffe09c"/><path d="M695.048,320.22s-4.967,2.33-6.161,4.862a14,14,0,0,0-1.256,3.263s-.326,1.034,1.733,1.289c0,0,.937-3.8,3.746-5.453l2.813-1.648Z" transform="translate(-489.122 -268.344)" fill="#e7c4c3"/><ellipse cx="1.694" cy="1.435" rx="1.694" ry="1.435" transform="translate(204.009 58.618) rotate(-74.995)" fill="#ff7f8e"/><ellipse cx="1.687" cy="1.429" rx="1.687" ry="1.429" transform="translate(203.486 64.526) rotate(-75.08)" fill="#ff7f8e"/><path d="M695.289,348.259a1.768,1.768,0,0,0,1.054-1.224,1.449,1.449,0,1,0-2.761-.738,1.269,1.269,0,0,0-.042.186l.153.1Z" transform="translate(-493.115 -285.034)" fill="#ff7f8e"/><path d="M715.393,341.654a1.305,1.305,0,0,0,1.054-.186l-.907-3.048a1.756,1.756,0,0,0-1.1,1.237A1.57,1.57,0,0,0,715.393,341.654Z" transform="translate(-507.152 -280.605)" fill="#ff7f8e"/><path d="M717.007,357.7a1.377,1.377,0,0,0,1.289-.366c-.127-1.031-.264-2.059-.375-2.881h-.042a1.575,1.575,0,0,0-1.818,1.263A1.558,1.558,0,0,0,717.007,357.7Z" transform="translate(-508.241 -291.378)" fill="#ff7f8e"/><path d="M714.729,370.753a2,2,0,0,0,.212-.506,1.57,1.57,0,0,0-.946-2,1.377,1.377,0,0,0-1.305.372Z" transform="translate(-506.016 -300.675)" fill="#ff7f8e"/><path d="M711.336,334.18l.522.14a2.989,2.989,0,0,0-.356,1.224.819.819,0,0,0,0,.085c.069.538-.522-.14-.522-.14S711.081,334.382,711.336,334.18Z" transform="translate(-504.864 -277.749)" fill="#94cc79"/><path d="M704.052,344.5l.525.14a2.915,2.915,0,0,0-.356,1.22.742.742,0,0,0,0,.085c.069.538-.522-.14-.522-.14S703.8,344.7,704.052,344.5Z" transform="translate(-499.96 -284.701)" fill="#94cc79"/><path d="M709.026,347.91l.522.137a2.989,2.989,0,0,0-.356,1.224.757.757,0,0,0,0,.085c.072.538-.522-.14-.522-.14S708.778,348.109,709.026,347.91Z" transform="translate(-503.308 -286.998)" fill="#94cc79"/><path d="M715.432,356.52l.525.137a2.938,2.938,0,0,0-.356,1.224.757.757,0,0,0,0,.085c.069.538-.522-.14-.522-.14S715.181,356.719,715.432,356.52Z" transform="translate(-507.626 -292.799)" fill="#94cc79"/><path d="M719.416,370.69l.522.14a2.986,2.986,0,0,0-.356,1.22.69.69,0,0,0,0,.085c.072.538-.522-.137-.522-.137S719.161,370.889,719.416,370.69Z" transform="translate(-510.307 -302.345)" fill="#94cc79"/><path d="M710.749,360.78l.522.14a2.939,2.939,0,0,0-.349,1.237.7.7,0,0,0,0,.085c.069.538-.522-.137-.522-.137S710.5,360.979,710.749,360.78Z" transform="translate(-504.473 -295.668)" fill="#94cc79"/><path d="M711.982,319.685s-.747-1.694-1.632-.431a5.991,5.991,0,0,0,.979,2.872s2.705,7.359,2.48,8.484c0,0,1.067,7.107.8,7.505,0,0,.294.5.5-1.387s-.708-7.44-.708-7.44l-1.341-5.769-.9-1.958Z" transform="translate(-504.44 -267.378)" fill="#e7c4c3"/><path d="M711.982,319.685s-.747-1.694-1.632-.431a5.991,5.991,0,0,0,.979,2.872s2.705,7.359,2.48,8.484c0,0,1.067,7.107.8,7.505,0,0,.294.5.5-1.387s-.708-7.44-.708-7.44l-1.341-5.769-.9-1.958Z" transform="translate(-504.44 -267.378)" fill="#fff" opacity="0.2"/><path d="M687.85,325.572s1.341,3.864,2.568,2.836l-.979-5.048Z" transform="translate(-489.282 -270.46)" fill="#fbbebe"/><path d="M394.253,378.77s11.829,19.929,14.593,22.591c0,0,11.819,12.27,5.812,11.421-.441-.062-9.091-7.375-9.6-8.576S388.2,381.759,388.2,381.759l2.333-2.147Z" transform="translate(-287.415 -307.788)" fill="#a0616a"/><path d="M394.253,378.77s11.829,19.929,14.593,22.591c0,0,11.819,12.27,5.812,11.421-.441-.062-9.091-7.375-9.6-8.576S388.2,381.759,388.2,381.759l2.333-2.147Z" transform="translate(-287.415 -307.788)" opacity="0.1"/><path d="M434.55,572.352s-3.785,4.732-2.206,6.624,9.447,5.512,11.986,5.362c2.682-.157,11.673.326,11.989-3.785,0,0,.63-1.893-7.571-2.209s-5.681-8.834-5.681-8.834Z" transform="translate(-316.894 -436.285)" fill="#2f2e41"/><path d="M300.41,452.042s-3.785,12.932,7.571,15.141l12.3-.63s17.351-3.472,22.086-.946c0,0,1.893.326,1.26,2.839s.946,19.56.946,19.56v5.678s10.726,0,11.989-1.263a26.317,26.317,0,0,1,0-9.137c.946-4.089-1.576-17.037-1.576-17.037l-.251-7.77a5.423,5.423,0,0,0-2.862-4.673,4.242,4.242,0,0,0-1.935-.493s-21.453-3.469-29.023-2.839S300.41,452.042,300.41,452.042Z" transform="translate(-227.865 -356.04)" fill="#605d82"/><path d="M354.688,328.79s5.678,6.624,6.308,8.834,7.584,7.877,7.584,7.877-5.048,3.785-4.1,5.678-6.624-6.308-6.624-6.308L349,331.946Z" transform="translate(-261.007 -274.118)" fill="#f39719"/><path d="M354.688,328.79s5.678,6.624,6.308,8.834,7.584,7.877,7.584,7.877-5.048,3.785-4.1,5.678-6.624-6.308-6.624-6.308L349,331.946Z" transform="translate(-261.007 -274.118)" opacity="0.1"/><path d="M348.029,299.81s-2.839,9.137-2.839,12.619-11.989-.946-11.673-2.839,6.941-8.834,7.257-11.673S348.029,299.81,348.029,299.81Z" transform="translate(-250.572 -252.708)" fill="#a0616a"/><path d="M314.916,324.521s-11.043-2.839-12.619,13.252,1.26,17.98-3.472,27.76S331,366.8,331,366.8s-1.893-2.209-7.887-1.263l-2.839-8.517s-.946-3.785,4.418-3.785,2.839-11.043,2.839-11.043-2.839-9.463-4.418-10.41S318.711,325.154,314.916,324.521Z" transform="translate(-226.923 -271.112)" opacity="0.1"/><path d="M314.916,322.6s-11.043-2.839-12.619,13.249,1.26,17.984-3.472,27.764S331,364.876,331,364.876s-1.893-2.209-7.887-1.263l-2.839-8.517s-.937-3.779,4.428-3.779,2.839-11.043,2.839-11.043-2.839-9.463-4.418-10.41S318.711,323.228,314.916,322.6Z" transform="translate(-226.923 -269.818)" fill="#f39719"/><ellipse cx="10.41" cy="10.41" rx="10.41" ry="10.41" transform="translate(84.218 31.96)" fill="#a0616a"/><path d="M283.83,257.778l26.161,15.637,24.341-22.68L305.315,240.63l-20.882,14.215Z" transform="translate(-191.213 -162.107)" fill="#dadae5"/><path d="M355.118,151.341,347.1,175.952l29.079,9.385L388.4,150.61Z" transform="translate(-233.836 -101.462)" fill="none"/><path d="M361.632,157.457,353.49,181.67l26.994,7.763,11.522-32.743Z" transform="translate(-238.141 -105.558)" fill="#dadae5"/><path d="M371.78,152.051l2.209,2.02,30.374-.767.7-1.984Z" transform="translate(-250.463 -101.941)" opacity="0.03"/><path d="M347.21,178.168l8.018-24.608,2.209,2.02L349.5,179.186Z" transform="translate(-233.91 -103.45)" opacity="0.03"/><path d="M371.67,151.341l2.209,2.02,30.374-.767.7-1.984Z" transform="translate(-250.389 -101.462)" fill="#eff0f4"/><path d="M347.1,177.461l8.018-24.611,2.209,2.02-7.936,23.606Z" transform="translate(-233.836 -102.971)" fill="#eff0f4"/><path d="M371.67,151.341l3.377,3.159,30.378-.767-.473-3.123Z" transform="translate(-250.389 -101.462)" opacity="0.03"/><path d="M347.1,177.461l8.018-24.611,3.377,3.159-7.936,23.606Z" transform="translate(-233.836 -102.971)" opacity="0.03"/><path d="M347.26,229.33l.737,4.683,29.2,10.136-.852-5.433Z" transform="translate(-233.944 -154.494)" opacity="0.03"/><path d="M281.12,244.719,302.7,229.33l.943,4.679-21.2,15.768Z" transform="translate(-189.387 -154.494)" opacity="0.03"/><path d="M347.1,228.27l.633,4.037,29.2,10.136-.751-4.787Z" transform="translate(-233.836 -153.78)" fill="#eff0f4"/><path d="M280.95,243.656l21.586-15.386.839,4.033-21.2,15.768Z" transform="translate(-189.273 -153.78)" fill="#eff0f4"/><path d="M347.1,228.27l.633,4.037,29.2,10.136-.751-4.787Z" transform="translate(-233.836 -153.78)" opacity="0.03"/><path d="M280.95,243.656l21.586-15.386.839,4.033-21.2,15.768Z" transform="translate(-189.273 -153.78)" opacity="0.03"/><path d="M280.95,275.42l.976,5.818,26.09,15.589-.643-5.988Z" transform="translate(-189.273 -185.544)" fill="#cccad6"/><path d="M396.419,418.76s-.454.865.238,1.263a44.162,44.162,0,0,0,5.055,1.1c1.162.215,2.327.424,3.263.587,1.142.2,1.932.326,1.932.326h.6l3.629.069,3.413.065,1.446-.3-.832-5.672-4.321-4.748-.9.764-.153.131-2.376,1.155-6.7,3.263-3.015,1.468-.352.173Z" transform="translate(-292.853 -329.804)" fill="#ffe09c"/><path d="M447.126,419.572s-.813-6.2-3.156-8.374a15.527,15.527,0,0,0-3.11-2.493s-1.008-.715-2,1.439c0,0,3.808,2.33,4.631,5.955l.819,3.625Z" transform="translate(-321.543 -327.878)" fill="#e7c4c3"/><ellipse cx="1.632" cy="1.925" rx="1.632" ry="1.925" transform="translate(116.879 88.784) rotate(-57.43)" fill="#ff7f8e"/><ellipse cx="1.632" cy="1.925" rx="1.632" ry="1.925" transform="translate(110.926 87.437) rotate(-57.43)" fill="#ff7f8e"/><path d="M430.4,415.113a2.007,2.007,0,0,0,.979,1.57,1.648,1.648,0,1,0,1.752-2.735,2.15,2.15,0,0,0-.189-.108l-.153.13Z" transform="translate(-315.844 -331.414)" fill="#ff7f8e"/><path d="M430.733,438.811a1.5,1.5,0,0,0-.166,1.211l3.629.069a1.991,1.991,0,0,0-.979-1.632A1.8,1.8,0,0,0,430.733,438.811Z" transform="translate(-315.916 -347.773)" fill="#ff7f8e"/><path d="M412.619,434.991a1.56,1.56,0,0,0-.046,1.527c1.162.215,2.327.424,3.263.587l.029-.042a1.953,1.953,0,0,0-3.247-2.072Z" transform="translate(-303.715 -345.202)" fill="#ff7f8e"/><path d="M400.62,429.245a2.314,2.314,0,0,0,.476.4,1.8,1.8,0,0,0,2.5-.326,1.556,1.556,0,0,0,.042-1.534Z" transform="translate(-295.782 -340.812)" fill="#ff7f8e"/><path d="M444.659,437.519l-.326.519a3.364,3.364,0,0,0-1.2-.806l-.095-.023c-.61-.111.326-.519.326-.519S444.531,437.176,444.659,437.519Z" transform="translate(-324.216 -346.807)" fill="#94cc79"/><path d="M435.972,426.039l-.326.522a3.358,3.358,0,0,0-1.2-.809l-.095-.023c-.607-.108.326-.519.326-.519S435.844,425.7,435.972,426.039Z" transform="translate(-318.365 -339.073)" fill="#94cc79"/><path d="M430.549,430.289l-.326.519a3.364,3.364,0,0,0-1.2-.806l-.095-.023c-.61-.111.326-.519.326-.519S430.418,429.94,430.549,430.289Z" transform="translate(-314.71 -341.937)" fill="#94cc79"/><path d="M418.979,434.289l-.326.522a3.357,3.357,0,0,0-1.2-.809l-.095-.023c-.61-.108.326-.519.326-.519S418.848,433.933,418.979,434.289Z" transform="translate(-306.916 -344.631)" fill="#94cc79"/><path d="M402.215,433.689l-.326.522a3.38,3.38,0,0,0-1.207-.809l-.095-.023c-.607-.108.326-.519.326-.519S402.081,433.343,402.215,433.689Z" transform="translate(-295.621 -344.227)" fill="#94cc79"/><path d="M415.969,427.682l-.326.519a3.358,3.358,0,0,0-1.2-.809l-.095-.023c-.61-.108.326-.519.326-.519S415.838,427.336,415.969,427.682Z" transform="translate(-304.888 -340.178)" fill="#94cc79"/><path d="M417.572,439.928s2.1-.228,1.028-1.609a6.808,6.808,0,0,0-3.453.059s-8.932.4-10.09-.242c0,0-8.093-1.305-8.419-1.716,0,0-.653.144,1.331,1.025s8.331,1.8,8.331,1.8l6.732.535,2.421-.3Z" transform="translate(-293.03 -346.625)" fill="#e7c4c3"/><path d="M417.572,439.928s2.1-.228,1.028-1.609a6.808,6.808,0,0,0-3.453.059s-8.932.4-10.09-.242c0,0-8.093-1.305-8.419-1.716,0,0-.653.144,1.331,1.025s8.331,1.8,8.331,1.8l6.732.535,2.421-.3Z" transform="translate(-293.03 -346.625)" fill="#fff" opacity="0.2"/><path d="M441.3,436.861a2.01,2.01,0,0,0,.3,1.818,1.653,1.653,0,1,0,2.66-1.886c-.042-.059-.088-.117-.134-.173l-.2.065Z" transform="translate(-323.123 -346.76)" fill="#ff7f8e"/><path d="M361.92,278.45l24.243-21.42.744,4.728-24.344,22.68Z" transform="translate(-243.82 -173.155)" fill="#cccad6"/><path d="M439.356,186.558l-3.146-1.22,12.221-34.727,2.33,1.645Z" transform="translate(-293.867 -101.462)" fill="#cccad6"/><g transform="translate(115.055 133.225)" opacity="0.1"><path d="M464.892,572a10.9,10.9,0,0,1,.362-2.487l-.16.055A11.1,11.1,0,0,0,464.892,572Z" transform="translate(-454.132 -569.51)" fill="#fff"/><path d="M444.31,600.079c-2.539.15-10.41-3.472-11.986-5.365a1.654,1.654,0,0,1-.365-.894,1.977,1.977,0,0,0,.365,1.527c1.576,1.893,9.447,5.512,11.986,5.362,2.682-.157,11.673.326,11.989-3.785a.515.515,0,0,0-.042-.326C455.532,600.376,446.924,599.932,444.31,600.079Z" transform="translate(-431.929 -585.887)" fill="#fff"/></g><path d="M463.992,364.745s.561-.653.052-1.123a38.618,38.618,0,0,0-4.1-1.958c-.95-.418-1.906-.829-2.666-1.155l-1.583-.675-.512-.131-3.084-.786-2.9-.741-1.305-.036-.437,5.022,2.738,4.921.92-.47.16-.082,2.261-.509,6.389-1.423,2.868-.653.326-.075Z" transform="translate(-327.337 -293.89)" fill="#ffe09c"/><path d="M442.005,357.67s-.551,5.456,1.012,7.783a14.019,14.019,0,0,0,2.154,2.754s.718.809,2-.829c0,0-2.787-2.754-2.757-6.014l.026-3.263Z" transform="translate(-323.599 -293.573)" fill="#e7c4c3"/><ellipse cx="1.429" cy="1.687" rx="1.429" ry="1.687" transform="matrix(0.717, -0.697, 0.697, 0.717, 120.848, 67.93)" fill="#ff7f8e"/><ellipse cx="1.429" cy="1.687" rx="1.429" ry="1.687" transform="matrix(0.717, -0.697, 0.697, 0.717, 125.662, 70.272)" fill="#ff7f8e"/><path d="M459.737,381.036a1.766,1.766,0,0,0-.509-1.534,1.59,1.59,0,0,0-2.2-.212,1.57,1.57,0,0,0,.153,2.206,1.714,1.714,0,0,0,.137.131l.16-.082Z" transform="translate(-333.521 -307.9)" fill="#ff7f8e"/><path d="M464.36,362.308a1.305,1.305,0,0,0,.382-1l-3.084-.786a1.749,1.749,0,0,0,.5,1.576A1.567,1.567,0,0,0,464.36,362.308Z" transform="translate(-336.882 -295.493)" fill="#ff7f8e"/><path d="M479.013,367.84a1.38,1.38,0,0,0,.349-1.305c-.95-.418-1.906-.829-2.666-1.155l-.036.029a1.716,1.716,0,0,0,2.353,2.431Z" transform="translate(-346.751 -298.767)" fill="#ff7f8e"/><path d="M488.438,376.912a1.862,1.862,0,0,0-.326-.441,1.57,1.57,0,0,0-2.2-.212,1.364,1.364,0,0,0-.346,1.305Z" transform="translate(-352.978 -305.855)" fill="#ff7f8e"/><path d="M455,362.625l.388-.375a2.974,2.974,0,0,0,.868.93l.075.039c.5.215-.388.375-.388.375S455.055,362.945,455,362.625Z" transform="translate(-332.416 -296.659)" fill="#94cc79"/><path d="M460.16,374.219l.385-.379a2.969,2.969,0,0,0,.868.933l.075.036c.5.219-.388.379-.388.379S460.2,374.519,460.16,374.219Z" transform="translate(-335.893 -304.467)" fill="#94cc79"/><path d="M465.63,371.648l.388-.379a2.969,2.969,0,0,0,.868.933l.075.036c.5.219-.388.379-.388.379S465.672,371.968,465.63,371.648Z" transform="translate(-339.578 -302.735)" fill="#94cc79"/><path d="M476.31,370.569l.388-.379a2.989,2.989,0,0,0,.865.933l.078.039c.5.215-.388.375-.388.375S476.352,370.888,476.31,370.569Z" transform="translate(-346.772 -302.008)" fill="#94cc79"/><path d="M490.52,374.429l.388-.379a2.936,2.936,0,0,0,.865.933l.078.036c.5.219-.388.379-.388.379S490.562,374.745,490.52,374.429Z" transform="translate(-356.345 -304.608)" fill="#94cc79"/><path d="M477.56,376.785l.388-.375a2.973,2.973,0,0,0,.868.93.329.329,0,0,0,.075.039c.5.215-.388.379-.388.379S477.6,377.105,477.56,376.785Z" transform="translate(-347.615 -306.198)" fill="#94cc79"/><path d="M443.124,354.062s-1.837-.225-1.2,1.168a6,6,0,0,0,2.96.653s7.7,1.455,8.566,2.232c0,0,6.647,2.735,6.853,3.159,0,0,.584,0-.93-1.145s-6.745-3.218-6.745-3.218l-5.639-1.811-2.128-.232Z" transform="translate(-323.517 -291.134)" fill="#e7c4c3"/><path d="M443.124,354.062s-1.837-.225-1.2,1.168a6,6,0,0,0,2.96.653s7.7,1.455,8.566,2.232c0,0,6.647,2.735,6.853,3.159,0,0,.584,0-.93-1.145s-6.745-3.218-6.745-3.218l-5.639-1.811-2.128-.232Z" transform="translate(-323.517 -291.134)" fill="#fff" opacity="0.2"/><path d="M387.96,366.486a9.482,9.482,0,0,0,2.509-1.909c.326-.385.6-.819.937-1.2a6.148,6.148,0,0,1,3.159-1.8,15.45,15.45,0,0,1,3.658-.356,6.713,6.713,0,0,1,2.434.294,2.444,2.444,0,0,1,1.612,1.733,2.859,2.859,0,0,1-1.227,2.558A5.92,5.92,0,0,1,398.588,367a20.115,20.115,0,0,1-2.216.258c-4.366.457-8.263,2.832-12.074,5-3.361,1.9-5.267,1.814-8.755,3.466-.137-1.044-1.716-.235-1.694-1.289.02-.786.059-1.987.8-2.451a16.438,16.438,0,0,1,3.263-.979,52.575,52.575,0,0,0,6.575-2.66Q386.256,367.474,387.96,366.486Z" transform="translate(-277.747 -295.957)" fill="#a0616a"/><path d="M326.8,343.266l16.731,15.141s3.156-6.308,4.1-6.308-11.356-18.6-11.356-18.6-3.156-3.785-5.048-1.893S323.645,332.223,326.8,343.266Z" transform="translate(-245.422 -275.658)" opacity="0.1"/><path d="M325.827,341.323l16.721,15.141s3.156-6.311,4.1-6.311-11.359-18.6-11.359-18.6-3.156-3.789-5.048-1.9S322.672,330.28,325.827,341.323Z" transform="translate(-244.765 -274.345)" fill="#f39719"/><path d="M308.956,253.893a5.026,5.026,0,0,0,.878-1.371c1.442-3.263-.845-7.362-4.751-8.484-1.958-.571-4.151-.457-6.106-1.064a29.361,29.361,0,0,1-4.34-2.124,18.3,18.3,0,0,0-8.729-1.873c-2.953.1-6.164,1.142-7.375,3.423-1.769,3.322,1.485,7.505-.486,10.739-1.449,2.376-4.963,3.077-7.877,4.108a21.5,21.5,0,0,0-8.041,4.983c-2.284,2.284-3.916,5.417-2.767,8.249.669,1.661,2.18,2.96,3.381,4.392a14.032,14.032,0,0,1,.878,17.06,8.3,8.3,0,0,0-1.449,2.506c-.555,2.18,1.684,4.373,4.272,4.8a10.171,10.171,0,0,0,7.287-1.968,13.1,13.1,0,0,0,4.343-5.052c2.392-5.071.711-10.769.473-16.228a2.474,2.474,0,0,1,.447-1.827c.692-.747,2-.728,3.113-.826a8.653,8.653,0,0,0,6.771-4.105c2.34-4.294-.385-10.3,3.7-13.526C297.727,251.638,305.135,258.067,308.956,253.893Z" transform="translate(-200.365 -213.605)" fill="#3f3d56"/><path d="M312.7,254.47h-.033a5.923,5.923,0,0,1,1.194,6.22,5.026,5.026,0,0,1-.878,1.371c-3.821,4.174-11.229-2.255-16.375,1.811-4.089,3.231-1.364,9.232-3.7,13.526a8.637,8.637,0,0,1-6.771,4.105c-1.116.1-2.421.078-3.113.826a2.417,2.417,0,0,0-.447,1.827c.238,5.459,1.919,11.157-.473,16.228a13.1,13.1,0,0,1-4.343,5.052,10.2,10.2,0,0,1-7.287,1.974l-.18-.039a5.724,5.724,0,0,0,3.769,2.323,10.228,10.228,0,0,0,7.287-1.981,13.1,13.1,0,0,0,4.343-5.051c2.392-5.071.711-10.769.473-16.228a2.474,2.474,0,0,1,.447-1.827c.692-.747,2-.728,3.113-.826a8.653,8.653,0,0,0,6.771-4.105c2.34-4.294-.385-10.3,3.7-13.526,5.146-4.066,12.554,2.363,16.375-1.811a5.024,5.024,0,0,0,.878-1.371C318.893,259.694,316.605,255.622,312.7,254.47Z" transform="translate(-207.982 -224.05)" opacity="0.1"/></svg>